<svg width="27" height="27" viewBox="0 0 27 27" fill="none" xmlns="http://www.w3.org/2000/svg">
<path d="M0 23.1672C0 21.4116 0.697377 19.728 1.93872 18.4867C3.18006 17.2454 4.86367 16.548 6.61919 16.548H19.8576C21.6131 16.548 23.2967 17.2454 24.5381 18.4867C25.7794 19.728 26.4768 21.4116 26.4768 23.1672C26.4768 24.0449 26.1281 24.8867 25.5074 25.5074C24.8867 26.1281 24.0449 26.4768 23.1672 26.4768H3.3096C2.43184 26.4768 1.59003 26.1281 0.969358 25.5074C0.348688 24.8867 0 24.0449 0 23.1672Z" fill="#F4F5F6"/>
<path d="M13.2383 9.92879C15.9801 9.92879 18.2027 7.70616 18.2027 4.9644C18.2027 2.22264 15.9801 0 13.2383 0C10.4966 0 8.27393 2.22264 8.27393 4.9644C8.27393 7.70616 10.4966 9.92879 13.2383 9.92879Z" fill="#F4F5F6"/>
</svg>
