<svg width="16" height="19" viewBox="0 0 16 19" fill="none" xmlns="http://www.w3.org/2000/svg">
<path d="M7.99996 18.7509C7.70159 18.7509 7.41545 18.6324 7.20447 18.4214C6.99349 18.2104 6.87496 17.9243 6.87496 17.6259V3.84464L2.0459 8.67464C1.83456 8.88598 1.54791 9.00471 1.24903 9.00471C0.95014 9.00471 0.663496 8.88598 0.452151 8.67464C0.240807 8.46329 0.122073 8.17665 0.122073 7.87776C0.122073 7.57888 0.240807 7.29223 0.452151 7.08089L7.20215 0.330887C7.30667 0.226007 7.43086 0.142791 7.56761 0.0860095C7.70435 0.0292285 7.85096 0 7.99903 0C8.14709 0 8.2937 0.0292285 8.43045 0.0860095C8.56719 0.142791 8.69138 0.226007 8.7959 0.330887L15.5459 7.08089C15.6505 7.18553 15.7336 7.30977 15.7902 7.4465C15.8468 7.58322 15.876 7.72977 15.876 7.87776C15.876 8.02576 15.8468 8.1723 15.7902 8.30903C15.7336 8.44576 15.6505 8.56999 15.5459 8.67464C15.4413 8.77928 15.317 8.8623 15.1803 8.91893C15.0436 8.97556 14.897 9.00471 14.749 9.00471C14.601 9.00471 14.4545 8.97556 14.3178 8.91893C14.181 8.8623 14.0568 8.77928 13.9522 8.67464L9.12496 3.84464V17.6259C9.12496 17.9243 9.00644 18.2104 8.79546 18.4214C8.58448 18.6324 8.29833 18.7509 7.99996 18.7509Z" fill="#434342"/>
</svg>
