<svg width="19" height="16" viewBox="0 0 19 16" fill="none" xmlns="http://www.w3.org/2000/svg">
<path d="M18.7509 8.00004C18.7509 8.29841 18.6324 8.58455 18.4214 8.79553C18.2104 9.00651 17.9243 9.12504 17.6259 9.12504H3.84464L8.67464 13.9541C8.88598 14.1654 9.00471 14.4521 9.00471 14.751C9.00471 15.0499 8.88598 15.3365 8.67464 15.5478C8.46329 15.7592 8.17665 15.8779 7.87776 15.8779C7.57888 15.8779 7.29223 15.7592 7.08089 15.5478L0.330887 8.79785C0.226007 8.69333 0.142791 8.56914 0.0860095 8.43239C0.0292285 8.29565 0 8.14904 0 8.00097C0 7.85291 0.0292285 7.7063 0.0860095 7.56955C0.142791 7.43281 0.226007 7.30862 0.330887 7.2041L7.08089 0.4541C7.18553 0.349453 7.30977 0.266442 7.4465 0.209807C7.58322 0.153173 7.72977 0.124023 7.87776 0.124023C8.02576 0.124023 8.1723 0.153173 8.30903 0.209807C8.44576 0.266442 8.56999 0.349453 8.67464 0.4541C8.77928 0.558747 8.8623 0.682981 8.91893 0.819709C8.97556 0.956437 9.00471 1.10298 9.00471 1.25097C9.00471 1.39897 8.97556 1.54551 8.91893 1.68224C8.8623 1.81897 8.77928 1.9432 8.67464 2.04785L3.84464 6.87504H17.6259C17.9243 6.87504 18.2104 6.99356 18.4214 7.20454C18.6324 7.41552 18.7509 7.70167 18.7509 8.00004Z" fill="#434342"/>
</svg>
