<svg width="18" height="20" viewBox="0 0 18 20" fill="none" xmlns="http://www.w3.org/2000/svg">
<path d="M6.64134 0.0520535C5.7905 0.218821 4.89837 0.800367 4.34078 1.54868C3.95254 2.07464 3.64277 2.89565 3.56016 3.62685L3.53538 3.86631L2.9241 3.89197C2.37065 3.91335 2.29217 3.92618 2.07327 4.03308C1.79241 4.16992 1.4496 4.50773 1.33808 4.75574C1.22656 4.9952 1.19352 5.15769 1.14396 5.69648C1.09439 6.23954 1.04483 6.81681 0.982876 7.51381C0.958094 7.7832 0.920922 8.19798 0.90027 8.43317C0.858968 8.88215 0.797014 9.54922 0.73506 10.2719C0.714408 10.5071 0.677236 10.909 0.652454 11.1699C0.627673 11.4264 0.5905 11.8498 0.565719 12.1106C0.545067 12.3672 0.507895 12.7734 0.487244 13.0086C0.466592 13.2438 0.42942 13.6457 0.408769 13.9065C0.383987 14.1631 0.346815 14.5864 0.322033 14.8473C0.243558 15.7111 0.198125 16.2114 0.177474 16.4936C0.165083 16.6475 0.136171 16.934 0.11552 17.135C-0.0249092 18.4477 -0.0249093 18.4862 0.0494355 18.777C0.198125 19.3457 0.516156 19.7092 1.03657 19.9102L1.27612 20H8.98733C17.2603 20 16.8348 20.0085 17.2437 19.7862C17.5163 19.6408 17.7972 19.2901 17.9087 18.9694C18.012 18.6658 18.0244 18.3408 17.9624 17.7379C17.9376 17.5369 17.9004 17.1478 17.8757 16.8784C17.8302 16.3952 17.7889 15.9505 17.7105 15.1338C17.6898 14.9071 17.6526 14.4881 17.6278 14.2059C17.6031 13.9236 17.5742 13.6072 17.5618 13.5003C17.5535 13.3934 17.5246 13.1069 17.5039 12.8589C17.4833 12.6109 17.4461 12.2175 17.4213 11.9823C17.3966 11.7471 17.3594 11.3409 17.3346 11.0843C17.3139 10.8235 17.2768 10.4301 17.2561 10.2077C17.2355 9.98538 17.1983 9.57915 17.1735 9.30976C17.1116 8.64269 17.062 8.09963 17.0083 7.51381C16.9835 7.24442 16.9464 6.82964 16.9257 6.59445C16.8472 5.69648 16.8059 5.2817 16.777 5.12776C16.6944 4.66166 16.302 4.1913 15.8477 4.00743C15.5916 3.9048 15.5421 3.90052 14.4186 3.8877L13.2539 3.87059L13.225 3.71665C13.1506 3.28477 13.0846 3.07524 12.8698 2.6177C12.6096 2.05753 12.5394 1.95491 12.1139 1.48882C11.6224 0.954306 11.0029 0.578011 10.3255 0.398417C10.0199 0.317171 9.30536 0.308619 9.00798 0.377035C8.83451 0.419796 8.78495 0.41552 8.62387 0.338551C7.96302 0.0263977 7.2774 -0.0719528 6.64134 0.0520535ZM7.13697 1.45033C6.74873 1.84801 6.39352 2.44238 6.20766 3.00255C6.10028 3.32753 6.0218 3.65679 6.0218 3.77224V3.87914H5.39813H4.77446L4.79511 3.78079C4.8075 3.72948 4.83228 3.60975 4.84467 3.51568C4.94793 2.86999 5.31552 2.25423 5.85659 1.81807C6.19114 1.5444 6.83133 1.28356 7.17414 1.27501L7.31457 1.27073L7.13697 1.45033ZM10.3173 1.75393C10.8253 1.94208 11.4324 2.52363 11.6885 3.06669C11.8537 3.40878 11.9694 3.7252 11.9694 3.81928C11.9694 3.86631 11.8579 3.87914 11.4159 3.87914H10.8666L10.8377 3.58837C10.8088 3.28905 10.7468 2.97689 10.689 2.8315C10.4866 2.30555 10.4123 2.1345 10.2966 1.93353C10.2181 1.80525 10.1603 1.69834 10.1645 1.69834C10.1686 1.69834 10.2388 1.724 10.3173 1.75393ZM8.82625 2.07036C9.22276 2.48514 9.57383 3.22918 9.57383 3.66534V3.87914H8.41735C7.78129 3.87914 7.26088 3.86631 7.26088 3.84493C7.26501 3.78934 7.42609 3.30615 7.49217 3.15221C7.61195 2.88709 7.82673 2.57922 8.05389 2.35686C8.27279 2.13878 8.57017 1.91215 8.63626 1.91215C8.65691 1.91215 8.73951 1.98484 8.82625 2.07036ZM3.54364 5.50405C3.54364 5.95304 3.6882 6.17967 4.03927 6.27802C4.20448 6.32078 4.24579 6.31651 4.411 6.23526C4.69598 6.09843 4.78272 5.93166 4.78272 5.53399V5.20473H7.17414H9.56144L9.58209 5.52116C9.60687 5.90173 9.69774 6.0856 9.92903 6.21816C10.119 6.33361 10.2512 6.34216 10.4536 6.25237C10.7097 6.14119 10.817 5.94449 10.8418 5.54681L10.8666 5.20473H12.0355H13.2085V11.9609V18.7171H7.36414C3.17192 18.7171 1.49503 18.7043 1.42481 18.6701C1.3133 18.6188 1.22243 18.452 1.25134 18.3665C1.2596 18.3366 1.28852 18.08 1.3133 17.7978C1.33808 17.5156 1.37525 17.0837 1.40003 16.8357C1.45786 16.1771 1.51568 15.5486 1.56111 15.0183C1.58176 14.7575 1.61894 14.3342 1.64372 14.0776C1.6685 13.8167 1.70567 13.3934 1.73045 13.1369C1.7511 12.876 1.78828 12.4826 1.80893 12.2603C1.85849 11.7257 1.92458 11.0031 1.97414 10.4087C1.99892 10.1479 2.03609 9.72882 2.06087 9.48081C2.08153 9.23279 2.1187 8.83939 2.13935 8.60421C2.16 8.36902 2.19717 7.9628 2.22196 7.70623C2.26326 7.2658 2.29217 6.93226 2.38304 5.85469C2.40782 5.58102 2.44499 5.38005 2.48629 5.31163C2.55238 5.209 2.5689 5.20473 3.04801 5.20473H3.54364V5.50405ZM15.5008 5.30735C15.5421 5.37149 15.5834 5.5853 15.604 5.8718C15.6412 6.30796 15.666 6.57307 15.7692 7.65064C15.794 7.89438 15.8312 8.30061 15.8518 8.56145C15.8725 8.81801 15.9097 9.22424 15.9344 9.45942C15.9592 9.69461 15.9923 10.0966 16.017 10.3574C16.0377 10.614 16.0625 10.9133 16.0749 11.0202C16.0955 11.2169 16.1533 11.8284 16.2236 12.5895C16.2483 12.8333 16.2814 13.2266 16.3062 13.4661C16.3722 14.1888 16.3888 14.3555 16.4301 14.8259C16.4507 15.0739 16.4879 15.4759 16.5127 15.7239C16.5622 16.237 16.6242 16.887 16.6779 17.4771C16.6985 17.6994 16.7274 18.0244 16.744 18.1955C16.7688 18.4819 16.7646 18.5119 16.6779 18.6102L16.5829 18.7171H15.5132H14.4475V11.9609V5.20473H14.9432C15.4182 5.20473 15.4388 5.209 15.5008 5.30735Z" fill="#777777"/>
</svg>
