<svg width="29" height="25" viewBox="0 0 29 25" fill="none" xmlns="http://www.w3.org/2000/svg">
<path d="M0 21.875V14.0625C0 13.2337 0.339483 12.4388 0.943767 11.8528C1.54805 11.2667 2.36764 10.9375 3.22222 10.9375V6.25C3.22222 4.5924 3.90119 3.00268 5.10976 1.83058C6.31832 0.65848 7.95749 0 9.66667 0H19.3333C21.0425 0 22.6817 0.65848 23.8902 1.83058C25.0988 3.00268 25.7778 4.5924 25.7778 6.25V10.9375C26.6324 10.9375 27.452 11.2667 28.0562 11.8528C28.6605 12.4388 29 13.2337 29 14.0625V21.875C29 22.7038 28.6605 23.4987 28.0562 24.0847C27.452 24.6708 26.6324 25 25.7778 25C24.9232 25 24.1036 24.6708 23.4993 24.0847C22.895 23.4987 22.5556 22.7038 22.5556 21.875H6.44444C6.44444 22.7038 6.10496 23.4987 5.50068 24.0847C4.89639 24.6708 4.07681 25 3.22222 25C2.36764 25 1.54805 24.6708 0.943767 24.0847C0.339483 23.4987 0 22.7038 0 21.875ZM9.66667 3.125C8.81208 3.125 7.9925 3.45424 7.38821 4.04029C6.78393 4.62634 6.44444 5.4212 6.44444 6.25V10.9375H22.5556V6.25C22.5556 5.4212 22.2161 4.62634 21.6118 4.04029C21.0075 3.45424 20.1879 3.125 19.3333 3.125H9.66667ZM4.83333 17.1875C5.26063 17.1875 5.67042 17.0229 5.97256 16.7299C6.2747 16.4368 6.44444 16.0394 6.44444 15.625C6.44444 15.2106 6.2747 14.8132 5.97256 14.5201C5.67042 14.2271 5.26063 14.0625 4.83333 14.0625C4.40604 14.0625 3.99625 14.2271 3.69411 14.5201C3.39196 14.8132 3.22222 15.2106 3.22222 15.625C3.22222 16.0394 3.39196 16.4368 3.69411 16.7299C3.99625 17.0229 4.40604 17.1875 4.83333 17.1875ZM24.1667 17.1875C24.594 17.1875 25.0038 17.0229 25.3059 16.7299C25.608 16.4368 25.7778 16.0394 25.7778 15.625C25.7778 15.2106 25.608 14.8132 25.3059 14.5201C25.0038 14.2271 24.594 14.0625 24.1667 14.0625C23.7394 14.0625 23.3296 14.2271 23.0274 14.5201C22.7253 14.8132 22.5556 15.2106 22.5556 15.625C22.5556 16.0394 22.7253 16.4368 23.0274 16.7299C23.3296 17.0229 23.7394 17.1875 24.1667 17.1875Z" fill="currentColor"/>
</svg>
