<svg width="12" height="9" viewBox="0 0 12 9" fill="none" xmlns="http://www.w3.org/2000/svg">
<path d="M11.6847 1.12114L4.68473 8.12114C4.62376 8.18232 4.55132 8.23086 4.47155 8.26398C4.39178 8.29711 4.30626 8.31416 4.21989 8.31416C4.13352 8.31416 4.04799 8.29711 3.96823 8.26398C3.88846 8.23086 3.81601 8.18232 3.75504 8.12114L0.692545 5.05864C0.6315 4.9976 0.583078 4.92512 0.550041 4.84537C0.517004 4.76561 0.5 4.68013 0.5 4.5938C0.5 4.50747 0.517004 4.42198 0.550041 4.34222C0.583078 4.26247 0.6315 4.19 0.692545 4.12895C0.753589 4.06791 0.826059 4.01948 0.905817 3.98645C0.985575 3.95341 1.07106 3.93641 1.15739 3.93641C1.24372 3.93641 1.3292 3.95341 1.40896 3.98645C1.48872 4.01948 1.56119 4.06791 1.62223 4.12895L4.22044 6.72716L10.7561 0.192544C10.8794 0.0692602 11.0466 0 11.221 0C11.3953 0 11.5625 0.0692602 11.6858 0.192544C11.8091 0.315829 11.8784 0.483038 11.8784 0.657389C11.8784 0.831739 11.8091 0.998948 11.6858 1.12223L11.6847 1.12114Z" fill="currentColor"/>
</svg>
