<svg width="8" height="8" viewBox="0 0 8 8" fill="none" xmlns="http://www.w3.org/2000/svg">
<path d="M7.83099 7.02323C7.93829 7.13054 7.99857 7.27607 7.99857 7.42782C7.99857 7.57957 7.93829 7.72511 7.83099 7.83241C7.72368 7.93972 7.57815 8 7.4264 8C7.27465 8 7.12911 7.93972 7.02181 7.83241L3.99976 4.80942L0.976765 7.83146C0.869461 7.93877 0.723926 7.99905 0.572176 7.99905C0.420426 7.99905 0.27489 7.93877 0.167587 7.83146C0.0602827 7.72416 2.26126e-09 7.57862 0 7.42687C-2.26126e-09 7.27512 0.0602827 7.12959 0.167587 7.02228L3.19058 4.00024L0.168538 0.977241C0.0612345 0.869937 0.000951995 0.724402 0.000951997 0.572652C0.000951999 0.420901 0.0612345 0.275366 0.168538 0.168062C0.275842 0.0607586 0.421377 0.000475909 0.573128 0.000475908C0.724878 0.000475906 0.870414 0.0607586 0.977717 0.168062L3.99976 3.19106L7.02276 0.167586C7.13006 0.0602825 7.2756 -2.52816e-09 7.42735 0C7.5791 2.52816e-09 7.72463 0.0602825 7.83194 0.167586C7.93924 0.27489 7.99952 0.420425 7.99952 0.572176C7.99952 0.723926 7.93924 0.869461 7.83194 0.976765L4.80894 4.00024L7.83099 7.02323Z" fill="currentColor"/>
</svg>
