<svg width="16" height="18" viewBox="0 0 16 18" fill="none" xmlns="http://www.w3.org/2000/svg">
<path d="M15.04 3.59091H0.96C0.705392 3.59091 0.461212 3.6886 0.281178 3.8625C0.101143 4.0364 0 4.27225 0 4.51818C0 4.76411 0.101143 4.99997 0.281178 5.17386C0.461212 5.34776 0.705392 5.44545 0.96 5.44545H1.28V15.9545C1.28 16.3644 1.44857 16.7575 1.74863 17.0473C2.04869 17.3372 2.45565 17.5 2.88 17.5H13.12C13.5443 17.5 13.9513 17.3372 14.2514 17.0473C14.5514 16.7575 14.72 16.3644 14.72 15.9545V5.44545H15.04C15.2946 5.44545 15.5388 5.34776 15.7188 5.17386C15.8989 4.99997 16 4.76411 16 4.51818C16 4.27225 15.8989 4.0364 15.7188 3.8625C15.5388 3.6886 15.2946 3.59091 15.04 3.59091ZM12.8 15.6455H3.2V5.44545H12.8V15.6455ZM3.84 1.42727C3.84 1.18134 3.94114 0.945489 4.12118 0.771592C4.30121 0.597695 4.54539 0.5 4.8 0.5H11.2C11.4546 0.5 11.6988 0.597695 11.8788 0.771592C12.0589 0.945489 12.16 1.18134 12.16 1.42727C12.16 1.6732 12.0589 1.90906 11.8788 2.08295C11.6988 2.25685 11.4546 2.35455 11.2 2.35455H4.8C4.54539 2.35455 4.30121 2.25685 4.12118 2.08295C3.94114 1.90906 3.84 1.6732 3.84 1.42727Z" fill="#434342"/>
</svg>
