<svg width="16" height="16" viewBox="0 0 16 16" fill="none" xmlns="http://www.w3.org/2000/svg">
<g clip-path="url(#clip0_8358_11954)">
<path fill-rule="evenodd" clip-rule="evenodd" d="M14.5373 2.91902C15.3329 3.71458 15.327 4.96242 14.5545 5.73496L5.90219 14.4435L1.78558 15.1227C1.25202 15.2107 0.790001 14.7486 0.878007 14.2151L1.55716 10.0985L10.2658 1.44675C11.0393 0.673381 12.2912 0.673523 13.0645 1.44686L14.5373 2.91902ZM5.56359 9.1246H4.62281L8.95464 4.82086L11.1798 7.04602L6.87609 11.3779V10.4371H5.56359V9.1246ZM3.29222 13.3845L2.61625 12.7085L2.93004 10.8064L3.3636 10.3756H4.31254V11.6881H5.62504V12.6371L5.19426 13.0706L3.29222 13.3845ZM13.515 4.69566L13.5119 4.69875L12.2928 5.92576L10.0749 3.70787L11.3023 2.48851L11.305 2.48577C11.5035 2.28735 11.8246 2.28511 12.0252 2.48576L13.4978 3.95834C13.7183 4.17887 13.715 4.49561 13.515 4.69566Z" fill="#B2B2B1"/>
</g>
<defs>
<clipPath id="clip0_8358_11954">
<rect width="16" height="16" fill="white"/>
</clipPath>
</defs>
</svg>
