<svg width="66" height="60" viewBox="0 0 66 60" fill="none" xmlns="http://www.w3.org/2000/svg">
<path d="M5.46883 29.6763L10.9383 53.3506C11.5671 56.0723 13.991 58 16.7843 58H49.3753C52.1686 58 54.5925 56.0723 55.2213 53.3506L60.6908 29.6763M5.46883 29.6763H60.6908M5.46883 29.6763V29.6763C3.62931 29.6763 2.06183 28.341 1.76944 26.5249L1.73988 26.3413C1.35181 23.9308 3.21332 21.7457 5.65478 21.7457H11.2128M60.6908 29.6763V29.6763C62.5215 29.6763 64.0727 28.3283 64.3281 26.5155L64.3635 26.2641C64.6997 23.8777 62.8469 21.7457 60.4369 21.7457H56.5411M56.5411 21.7457L46.6459 2M56.5411 21.7457H11.2128M11.2128 21.7457L20.0638 2M18.0773 35.5029L21.7481 51.8497M27.9726 35.5029L29.5686 51.8497M38.6658 35.5029L37.389 51.8497M48.2419 35.5029L45.2095 51.8497" stroke="#171715" stroke-opacity="0.4" stroke-width="3" stroke-linecap="round" stroke-linejoin="round"/>
</svg>
