<svg width="28" height="28" viewBox="0 0 28 28" fill="none" xmlns="http://www.w3.org/2000/svg">
<path fill-rule="evenodd" clip-rule="evenodd" d="M21.7778 0C22.6029 0 23.3942 0.323957 23.9777 0.900604C24.5611 1.47725 24.8889 2.25935 24.8889 3.07485V4.61228H26.4444C26.857 4.61228 27.2527 4.77426 27.5444 5.06258C27.8361 5.35091 28 5.74196 28 6.14971C28 6.55746 27.8361 6.94851 27.5444 7.23683C27.2527 7.52516 26.857 7.68713 26.4444 7.68713V24.5988C26.857 24.5988 27.2527 24.7608 27.5444 25.0491C27.8361 25.3375 28 25.7285 28 26.1363C28 26.544 27.8361 26.9351 27.5444 27.2234C27.2527 27.5117 26.857 27.6737 26.4444 27.6737H16.3333V20.7553C16.3333 20.1436 16.0875 19.5571 15.6499 19.1246C15.2123 18.6921 14.6188 18.4491 14 18.4491C13.3812 18.4491 12.7877 18.6921 12.3501 19.1246C11.9125 19.5571 11.6667 20.1436 11.6667 20.7553V27.6737H1.55556C1.143 27.6737 0.747335 27.5117 0.455612 27.2234C0.163888 26.9351 0 26.544 0 26.1363C0 25.7285 0.163888 25.3375 0.455612 25.0491C0.747335 24.7608 1.143 24.5988 1.55556 24.5988V7.68713C1.143 7.68713 0.747335 7.52516 0.455612 7.23683C0.163888 6.94851 0 6.55746 0 6.14971C0 5.74196 0.163888 5.35091 0.455612 5.06258C0.747335 4.77426 1.143 4.61228 1.55556 4.61228H3.11111V3.07485C3.11111 2.25935 3.43889 1.47725 4.02233 0.900604C4.60578 0.323957 5.3971 0 6.22222 0H21.7778ZM7.77778 15.3743C7.36522 15.3743 6.96956 15.5362 6.67783 15.8246C6.38611 16.1129 6.22222 16.5039 6.22222 16.9117V18.4491C6.22222 18.8569 6.38611 19.2479 6.67783 19.5362C6.96956 19.8246 7.36522 19.9865 7.77778 19.9865C8.19034 19.9865 8.586 19.8246 8.87772 19.5362C9.16945 19.2479 9.33333 18.8569 9.33333 18.4491V16.9117C9.33333 16.5039 9.16945 16.1129 8.87772 15.8246C8.586 15.5362 8.19034 15.3743 7.77778 15.3743ZM20.2222 15.3743C19.8412 15.3743 19.4735 15.5126 19.1888 15.7628C18.904 16.013 18.7221 16.3578 18.6776 16.7318L18.6667 16.9117V18.4491C18.6671 18.841 18.8189 19.2179 19.0911 19.5028C19.3633 19.7878 19.7353 19.9592 20.1311 19.9822C20.5269 20.0052 20.9166 19.8779 21.2206 19.6264C21.5247 19.3749 21.7201 19.0181 21.7669 18.629L21.7778 18.4491V16.9117C21.7778 16.5039 21.6139 16.1129 21.3222 15.8246C21.0304 15.5362 20.6348 15.3743 20.2222 15.3743ZM7.77778 9.22456C7.39677 9.22461 7.02903 9.36286 6.74431 9.61309C6.45959 9.86332 6.27769 10.2081 6.23311 10.5821L6.22222 10.762V12.2994C6.22266 12.6913 6.37448 13.0682 6.64665 13.3531C6.91883 13.6381 7.29082 13.8095 7.68661 13.8325C8.08241 13.8555 8.47215 13.7282 8.77618 13.4767C9.08022 13.2252 9.27562 12.8684 9.32244 12.4793L9.33333 12.2994V10.762C9.33333 10.3542 9.16945 9.96319 8.87772 9.67486C8.586 9.38654 8.19034 9.22456 7.77778 9.22456ZM14 9.22456C13.619 9.22461 13.2513 9.36286 12.9665 9.61309C12.6818 9.86332 12.4999 10.2081 12.4553 10.5821L12.4444 10.762V12.2994C12.4449 12.6913 12.5967 13.0682 12.8689 13.3531C13.1411 13.6381 13.513 13.8095 13.9088 13.8325C14.3046 13.8555 14.6944 13.7282 14.9984 13.4767C15.3024 13.2252 15.4978 12.8684 15.5447 12.4793L15.5556 12.2994V10.762C15.5556 10.3542 15.3917 9.96319 15.0999 9.67486C14.8082 9.38654 14.4126 9.22456 14 9.22456ZM20.2222 9.22456C19.8097 9.22456 19.414 9.38654 19.1223 9.67486C18.8306 9.96319 18.6667 10.3542 18.6667 10.762V12.2994C18.6667 12.7072 18.8306 13.0982 19.1223 13.3865C19.414 13.6749 19.8097 13.8368 20.2222 13.8368C20.6348 13.8368 21.0304 13.6749 21.3222 13.3865C21.6139 13.0982 21.7778 12.7072 21.7778 12.2994V10.762C21.7778 10.3542 21.6139 9.96319 21.3222 9.67486C21.0304 9.38654 20.6348 9.22456 20.2222 9.22456ZM21.7778 3.07485H6.22222V4.61228H21.7778V3.07485Z" fill="currentColor"/>
</svg>
