<svg width="158" height="39" viewBox="0 0 158 39" fill="none" xmlns="http://www.w3.org/2000/svg">
<path d="M17.2639 9.54269L17.2455 9.51792C17.2455 9.51816 17.2521 9.5281 17.2639 9.54269Z" fill="#F4F5F6"/>
<path d="M20.8234 7.95891C20.8655 7.99496 20.9033 8.02699 20.9392 8.0578C20.9108 8.026 20.8742 7.99333 20.8234 7.95891Z" fill="#F4F5F6"/>
<path d="M20.7318 8.4934L20.7326 8.49281L18.199 9.49547L20.7318 8.4934Z" fill="#F4F5F6"/>
<path d="M17.5658 5.17692C17.6115 5.21616 17.6578 5.25482 17.7037 5.29371C17.6578 5.25482 17.6122 5.21616 17.5658 5.17692Z" fill="#F4F5F6"/>
<path d="M18.6909 6.13242C18.7474 6.17986 18.803 6.22736 18.858 6.27439C18.803 6.22695 18.7482 6.1805 18.6909 6.13242Z" fill="#F4F5F6"/>
<path d="M18.7435 16.0251C18.7448 16.0251 18.7457 16.0245 18.7465 16.0245C18.0903 16.1469 17.0968 16.3365 16.0335 16.5537C17.0951 16.3369 18.0875 16.1479 18.7435 16.0251Z" fill="#F4F5F6"/>
<path d="M16.0114 16.5581C15.6737 16.6268 15.3289 16.6991 14.9849 16.7728C15.3281 16.6993 15.6737 16.6268 16.0114 16.5581Z" fill="#F4F5F6"/>
<path d="M18.9857 15.9798C19.4865 15.9395 19.6134 16.3257 19.6429 16.4617L19.5418 15.8785C19.5418 15.8785 19.3335 15.9155 18.9857 15.9798Z" fill="#F4F5F6"/>
<path d="M24.4076 15.4707C24.4073 15.421 24.4076 15.3701 24.4081 15.3255C24.4121 14.756 25.1449 14.5809 25.1587 14.5777L24.4121 14.751C24.4121 14.751 24.4106 15.0202 24.4076 15.4707Z" fill="#F4F5F6"/>
<path d="M4.08355 15.2965L7.45002 16.9922C7.45002 16.9922 7.63332 17.1049 7.72857 17.2628C7.82399 17.4202 7.91198 17.6622 7.91198 17.6622L8.94335 23.1985L7.82238 17.1792L4.08355 15.2965Z" fill="#F4F5F6"/>
<path d="M31.0945 10.2463L29.6397 9.72116C29.0885 10.198 28.4696 10.6144 27.9711 11.005C29.2018 11.2896 30.2594 10.9435 31.0945 10.2463Z" fill="#F4F5F6"/>
<path d="M47.9136 16.2646C47.8207 15.7559 46.3546 18.2409 46.4464 18.7496C47.1813 22.7936 48.4846 33.5164 45.8702 36.4873C45.4539 36.9605 44.97 37.1621 44.3466 37.1211C42.2584 36.9849 41.1949 36.5026 41.7598 27.6869L42.7099 12.857C42.7428 12.3407 42.3557 11.8951 41.8441 11.8614C41.3332 11.8279 40.8915 12.2195 40.8583 12.7359L40.8224 13.2973C40.8224 13.2973 40.8293 13.7982 40.3538 13.6432C39.5233 13.3479 38.822 12.6982 38.4896 11.7993C37.8926 10.1878 38.7023 8.39252 40.297 7.78922C41.8926 7.18597 43.67 8.00415 44.2667 9.61592C44.6072 10.5358 44.4894 11.5165 44.0286 12.3001C43.8787 12.5067 43.8808 12.6674 43.8808 12.6674L43.3709 20.6314C43.3709 20.6314 43.3393 20.8409 43.528 20.8823C43.717 20.9244 43.7897 20.7391 43.7897 20.7391L47.747 13.4551C48.8272 11.4671 48.2548 9.28564 47.8013 8.10613C47.3469 6.92621 46.3263 4.93346 44.2103 4.17795L34.8246 0.828708C32.7078 0.073955 30.5316 -0.376092 28.4286 0.418253L17.3657 4.59939C17.3657 4.59939 17.0412 4.75404 17.346 4.99153C17.4197 5.05328 17.4928 5.1154 17.5658 5.17692C17.6122 5.21616 17.6578 5.25482 17.7037 5.29371C17.8525 5.4197 17.9997 5.54433 18.1447 5.66712C18.1695 5.68834 18.1955 5.71061 18.2203 5.73183C18.3812 5.8684 18.5373 6.00161 18.6909 6.13242C18.7482 6.1805 18.803 6.22695 18.858 6.27439C18.9636 6.36416 19.0667 6.45201 19.1679 6.53793C19.2141 6.57782 19.2619 6.61887 19.3072 6.65771C19.4336 6.7659 19.5546 6.86897 19.6715 6.96931C19.7337 7.02181 19.7917 7.07188 19.8498 7.12217C19.9389 7.1985 20.0281 7.27378 20.1097 7.34471C20.1347 7.36593 20.162 7.38913 20.1863 7.41041C20.439 7.62733 20.6556 7.81387 20.8233 7.9577C20.8233 7.95829 20.8237 7.95827 20.8234 7.95891C20.8742 7.99333 20.9108 8.026 20.9392 8.0578C21.1525 8.30698 20.7404 8.48961 20.7326 8.49281L20.7318 8.4934L18.199 9.49547L17.6771 9.70227C17.6771 9.70227 17.6077 9.73889 17.4624 9.6882C17.3585 9.65157 17.2925 9.58013 17.2639 9.54269C17.2521 9.5281 17.2455 9.51816 17.2455 9.51792L14.7694 6.15489L14.7495 6.12762L14.4387 5.70542L14.437 5.706L11.4588 1.68776C11.4588 1.68776 10.0309 1.51149 9.92326 2.18689L12.5171 5.70001C12.5171 5.70001 12.7093 5.9542 12.6499 6.16751C12.5895 6.38041 12.3141 6.50837 12.3141 6.50837L5.40935 9.11779C3.63633 9.78778 2.59772 11.591 2.78614 13.4132C3.15342 13.3069 3.55501 13.2444 3.93105 13.3035C5.03291 13.4784 8.00729 15.4266 10.9301 14.3226C13.853 13.2198 18.0299 11.2204 18.0299 11.2204L27.0872 7.2623C27.0872 7.2623 28.8147 6.68244 31.0537 7.29632C31.0422 7.99875 30.7174 8.59204 30.2603 9.11256L31.6883 9.64935C32.1349 9.1118 32.4921 8.46543 32.7413 7.7712C34.2868 8.12636 35.8158 8.37729 35.583 9.59872C35.2417 11.3897 29.1603 13.6512 29.1603 13.6512L25.1617 14.5773L25.1587 14.5777C25.1449 14.5809 24.4121 14.756 24.4081 15.3255C24.4076 15.3701 24.4073 15.421 24.4076 15.4707C24.4067 15.5416 24.4056 15.6172 24.4056 15.6976C24.4053 15.7316 24.4048 15.7662 24.405 15.8019C24.4037 15.8694 24.404 15.9391 24.4034 16.012C24.4031 16.0347 24.4023 16.0579 24.4026 16.0805C24.3945 16.9869 24.3814 18.2674 24.3601 19.6448C24.3599 19.6703 24.3595 19.6959 24.3599 19.7217C24.3574 19.8155 24.3568 19.91 24.3554 20.0043C24.3538 20.0886 24.353 20.1735 24.3516 20.2584C24.3498 20.3405 24.3482 20.4231 24.3467 20.5054C24.3443 20.6712 24.3408 20.8372 24.3383 21.0039C24.3362 21.0768 23.5474 21.5479 23.5465 21.6204C23.5457 21.6575 25.1042 21.0602 25.4225 21.0578C25.4225 21.0578 26.3456 21.3537 25.6962 22.4112C25.6962 22.4112 25.1161 22.6848 24.296 22.951C24.2834 23.4872 24.2682 24.0037 24.2506 24.4836C24.2494 24.5343 23.4031 25.1177 23.4008 25.1668C23.3996 25.2149 25.3477 24.2977 25.7864 24.2945C25.7864 24.2945 26.7087 24.5902 26.0599 25.6487C26.0599 25.6487 25.2362 26.0375 24.1646 26.3379C24.14 26.7101 24.1127 26.9997 24.0844 27.1813C23.812 28.8442 21.8847 29.4343 21.8847 29.4343L19.6505 16.5092C19.6505 16.5092 19.6477 16.4903 19.6429 16.4617C19.6134 16.3257 19.4865 15.9395 18.9857 15.9798C18.913 15.9858 18.8353 15.9993 18.7465 16.0245C18.7457 16.0245 18.7448 16.0251 18.7435 16.0251C18.0875 16.1479 17.0951 16.3369 16.0335 16.5537C16.0266 16.5551 16.0196 16.5565 16.0114 16.5581C15.6737 16.6268 15.3281 16.6993 14.9849 16.7728C14.9607 16.7774 14.9355 16.7829 14.912 16.7883C14.581 16.8588 14.2532 16.9315 13.9343 17.0034C13.9052 17.0098 13.8769 17.0166 13.8489 17.023C13.6941 17.0585 13.5411 17.0939 13.3926 17.1294C13.3728 17.1339 13.3545 17.1379 13.3355 17.1429C13.1997 17.1749 13.0679 17.2072 12.9392 17.2394C12.9161 17.2448 12.8921 17.251 12.8692 17.2563C12.7325 17.2908 12.5996 17.3246 12.4726 17.3585C12.4472 17.3647 12.4235 17.3715 12.3987 17.3781C12.2844 17.4086 12.1738 17.4386 12.0682 17.4687C12.0541 17.4731 12.0373 17.4768 12.0234 17.4816C11.9116 17.5133 11.8071 17.5449 11.7086 17.5756C11.6855 17.5825 11.6634 17.5894 11.6409 17.5966C11.5435 17.6283 11.4506 17.6587 11.3696 17.6888C9.49749 18.368 10.8445 21.2745 10.1841 22.1392C9.52398 23.0032 8.94335 23.1985 8.94335 23.1985L7.91198 17.6622C7.91198 17.6622 7.82399 17.4202 7.72857 17.2628C7.63332 17.1049 7.45002 16.9922 7.45002 16.9922L4.08355 15.2965L1.49672 13.9931C1.49672 13.9931 0.743322 13.7822 0 14.6873L3.78153 16.4932L3.78222 16.491L10.0369 33.3816C10.8234 35.5053 13.1875 36.5937 15.2892 35.7991L38.3082 27.0997C38.5389 27.0127 38.7601 26.9132 38.9726 26.8034C39.9832 26.3375 39.9408 27.0628 39.9408 27.0628L39.9082 27.5659C39.4071 35.3914 39.8963 38.708 44.2267 38.9912C45.4158 39.0687 46.4637 38.6339 47.2562 37.7322C50.9424 33.5452 48.2011 17.8443 47.9136 16.2646ZM7.61802 13.2793L6.8031 10.1503C6.8031 10.1503 7.82215 9.67883 8.2139 11.2437C8.71821 13.2568 10.0485 13.2635 10.0485 13.2635C9.36249 13.7442 7.61802 13.2793 7.61802 13.2793Z" fill="#F4F5F6"/>
<path d="M72.5162 17.1644C71.6 16.6408 70.6469 16.323 69.6567 16.2108V24.5405H67.8521V16.2108C66.8526 16.323 65.8948 16.6408 64.9786 17.1644L64.354 15.762C65.0018 15.3694 65.6958 15.0749 66.4362 14.8786C67.1858 14.6823 67.9539 14.5841 68.7405 14.5841C69.5271 14.5841 70.2952 14.6823 71.0448 14.8786C71.7944 15.0749 72.4931 15.3694 73.1409 15.762L72.5162 17.1644Z" fill="white"/>
<path d="M82.9866 14.7243V21.5396C82.9866 22.9886 82.5933 24.1011 81.8066 24.8771C81.0293 25.653 79.9512 26.041 78.5723 26.041C77.7579 26.041 77.0176 25.9195 76.3513 25.6764C75.685 25.4427 75.1205 25.1061 74.6577 24.6667L75.3934 23.2644C76.2541 24.0497 77.3045 24.4424 78.5445 24.4424C80.3028 24.4424 81.182 23.5028 81.182 21.6237V20.8805C80.5249 21.7219 79.5717 22.1426 78.3224 22.1426C77.0916 22.1426 76.1384 21.7873 75.4629 21.0768C74.7873 20.3663 74.4495 19.3473 74.4495 18.0198V14.7243H76.2541V17.9356C76.2541 18.7957 76.4577 19.4501 76.8649 19.8989C77.2813 20.3383 77.8597 20.558 78.6 20.558C79.3867 20.558 80.0113 20.3242 80.474 19.8568C80.946 19.38 81.182 18.6789 81.182 17.7533V14.7243H82.9866Z" fill="white"/>
<path d="M89.471 14.6402C90.7851 14.6402 91.8123 14.9767 92.5527 15.6499C93.293 16.3136 93.6632 17.2391 93.6632 18.4264C93.6632 19.567 93.3254 20.4645 92.6498 21.1189C91.9743 21.764 91.0396 22.0865 89.8458 22.0865C89.3831 22.0865 88.9389 22.0351 88.5132 21.9322C88.0875 21.8294 87.6248 21.6564 87.125 21.4134V24.5405H85.3482V18.6648C85.3482 17.3747 85.7045 16.3837 86.4171 15.6919C87.1297 14.9908 88.1476 14.6402 89.471 14.6402ZM89.5265 20.6561C90.2576 20.6561 90.8267 20.4645 91.2339 20.0812C91.6504 19.6979 91.8586 19.1603 91.8586 18.4685C91.8586 17.7673 91.6504 17.2204 91.2339 16.8278C90.8175 16.4258 90.2437 16.2248 89.5126 16.2248C88.763 16.2248 88.1754 16.4351 87.7497 16.8558C87.3333 17.2765 87.125 17.8702 87.125 18.6368V19.8288C87.4582 20.0999 87.8284 20.3055 88.2356 20.4458C88.652 20.586 89.0823 20.6561 89.5265 20.6561Z" fill="white"/>
<path d="M103.768 14.7243V24.5405H102.033V23.2925C101.376 24.218 100.358 24.6808 98.9792 24.6808C97.8317 24.6808 96.9294 24.3208 96.2723 23.601C95.6153 22.8718 95.2867 21.8434 95.2867 20.5159V14.7243H97.0913V20.4458C97.0913 21.3152 97.2949 21.9743 97.7021 22.423C98.1185 22.8624 98.6877 23.0821 99.4095 23.0821C100.187 23.0821 100.807 22.8484 101.27 22.381C101.732 21.9042 101.964 21.1983 101.964 20.2635V14.7243H103.768Z" fill="white"/>
<path d="M110.903 24.6808C109.922 24.6808 109.033 24.4657 108.238 24.0357C107.451 23.5963 106.831 22.9933 106.378 22.2267C105.933 21.4601 105.711 20.5954 105.711 19.6324C105.711 18.6695 105.938 17.8047 106.391 17.0381C106.845 16.2715 107.465 15.6732 108.251 15.2432C109.047 14.8038 109.936 14.5841 110.917 14.5841C111.713 14.5841 112.439 14.7243 113.096 15.0048C113.753 15.2852 114.308 15.6919 114.762 16.2248L113.596 17.3326C112.893 16.566 112.027 16.1827 111 16.1827C110.334 16.1827 109.737 16.3323 109.209 16.6315C108.682 16.9213 108.27 17.328 107.974 17.8515C107.678 18.375 107.53 18.9687 107.53 19.6324C107.53 20.2962 107.678 20.8898 107.974 21.4134C108.27 21.9369 108.682 22.3482 109.209 22.6474C109.737 22.9372 110.334 23.0821 111 23.0821C112.027 23.0821 112.893 22.6942 113.596 21.9182L114.762 23.0401C114.308 23.5729 113.749 23.9796 113.082 24.2601C112.425 24.5405 111.699 24.6808 110.903 24.6808Z" fill="white"/>
<path d="M123.392 17.1644C122.476 16.6408 121.523 16.323 120.532 16.2108V24.5405H118.728V16.2108C117.728 16.323 116.771 16.6408 115.854 17.1644L115.23 15.762C115.878 15.3694 116.572 15.0749 117.312 14.8786C118.061 14.6823 118.83 14.5841 119.616 14.5841C120.403 14.5841 121.171 14.6823 121.921 14.8786C122.67 15.0749 123.369 15.3694 124.017 15.762L123.392 17.1644Z" fill="white"/>
<path d="M124.449 19.9129H128.266V21.3713H124.449V19.9129Z" fill="white"/>
<path d="M136.853 17.1644C135.937 16.6408 134.984 16.323 133.993 16.2108V24.5405H132.189V16.2108C131.189 16.323 130.232 16.6408 129.315 17.1644L128.691 15.762C129.339 15.3694 130.033 15.0749 130.773 14.8786C131.523 14.6823 132.291 14.5841 133.077 14.5841C133.864 14.5841 134.632 14.6823 135.382 14.8786C136.131 15.0749 136.83 15.3694 137.478 15.762L136.853 17.1644Z" fill="white"/>
<path d="M147.323 14.7243V21.5396C147.323 22.9886 146.93 24.1011 146.143 24.8771C145.366 25.653 144.288 26.041 142.909 26.041C142.095 26.041 141.354 25.9195 140.688 25.6764C140.022 25.4427 139.457 25.1061 138.995 24.6667L139.73 23.2644C140.591 24.0497 141.641 24.4424 142.881 24.4424C144.64 24.4424 145.519 23.5028 145.519 21.6237V20.8805C144.862 21.7219 143.909 22.1426 142.659 22.1426C141.428 22.1426 140.475 21.7873 139.8 21.0768C139.124 20.3663 138.786 19.3473 138.786 18.0198V14.7243H140.591V17.9356C140.591 18.7957 140.795 19.4501 141.202 19.8989C141.618 20.3383 142.197 20.558 142.937 20.558C143.723 20.558 144.348 20.3242 144.811 19.8568C145.283 19.38 145.519 18.6789 145.519 17.7533V14.7243H147.323Z" fill="white"/>
<path d="M153.808 14.6402C155.122 14.6402 156.149 14.9767 156.89 15.6499C157.63 16.3136 158 17.2391 158 18.4264C158 19.567 157.662 20.4645 156.987 21.1189C156.311 21.764 155.376 22.0865 154.183 22.0865C153.72 22.0865 153.276 22.0351 152.85 21.9322C152.424 21.8294 151.962 21.6564 151.462 21.4134V24.5405H149.685V18.6648C149.685 17.3747 150.041 16.3837 150.754 15.6919C151.467 14.9908 152.484 14.6402 153.808 14.6402ZM153.863 20.6561C154.594 20.6561 155.164 20.4645 155.571 20.0812C155.987 19.6979 156.195 19.1603 156.195 18.4685C156.195 17.7673 155.987 17.2204 155.571 16.8278C155.154 16.4258 154.581 16.2248 153.849 16.2248C153.1 16.2248 152.512 16.4351 152.087 16.8558C151.67 17.2765 151.462 17.8702 151.462 18.6368V19.8288C151.795 20.0999 152.165 20.3055 152.572 20.4458C152.989 20.586 153.419 20.6561 153.863 20.6561Z" fill="white"/>
</svg>
