<svg width="59" height="59" viewBox="0 0 59 59" fill="none" xmlns="http://www.w3.org/2000/svg">
<path d="M0 12C0 5.37258 5.37258 0 12 0H47C53.6274 0 59 5.37258 59 12V47C59 53.6274 53.6274 59 47 59H12C5.37258 59 0 53.6274 0 47V12Z" fill="#003CFF"/>
<path d="M21.2639 22.5427L21.2455 22.5179C21.2455 22.5179 21.2521 22.5281 21.2639 22.5427Z" fill="white"/>
<path d="M24.8234 20.9589C24.8655 20.995 24.9033 21.027 24.9392 21.0578C24.9108 21.026 24.8742 20.9933 24.8234 20.9589Z" fill="white"/>
<path d="M22.6909 19.1324C22.7474 19.1799 22.803 19.2274 22.858 19.2744C22.803 19.227 22.7482 19.1805 22.6909 19.1324Z" fill="white"/>
<path d="M22.7435 29.0251L22.7465 29.0245C22.0903 29.1469 21.0968 29.3365 20.0335 29.5537C21.0951 29.3369 22.0875 29.1479 22.7435 29.0251Z" fill="white"/>
<path d="M22.9857 28.9798C23.4865 28.9395 23.6134 29.3257 23.6429 29.4617L23.5418 28.8785C23.5418 28.8785 23.3335 28.9155 22.9857 28.9798Z" fill="white"/>
<path d="M28.4076 28.4707C28.4073 28.421 28.4076 28.3701 28.4081 28.3255C28.4121 27.756 29.1449 27.5809 29.1587 27.5778L28.4121 27.751C28.4121 27.751 28.4106 28.0202 28.4076 28.4707Z" fill="white"/>
<path d="M8.08355 28.2965L11.45 29.9922C11.45 29.9922 11.6333 30.1049 11.7286 30.2628C11.824 30.4202 11.912 30.6622 11.912 30.6622L12.9433 36.1985L11.8224 30.1792L8.08355 28.2965Z" fill="white"/>
<path d="M35.0945 23.2463L33.6397 22.7212C33.0885 23.198 32.4696 23.6144 31.9711 24.005C33.2018 24.2896 34.2594 23.9435 35.0945 23.2463Z" fill="white"/>
<path d="M51.9136 29.2646C51.8207 28.7559 50.3546 31.2409 50.4464 31.7497C51.1813 35.7936 52.4846 46.5164 49.8702 49.4873C49.4539 49.9605 48.97 50.1621 48.3466 50.1211C46.2584 49.9849 45.1949 49.5026 45.7598 40.6869L46.7099 25.857C46.7428 25.3407 46.3557 24.8951 45.8441 24.8614C45.3332 24.8279 44.8915 25.2195 44.8583 25.7359L44.8224 26.2973C44.8224 26.2973 44.8293 26.7982 44.3538 26.6432C43.5233 26.348 42.822 25.6982 42.4896 24.7993C41.8926 23.1878 42.7023 21.3925 44.297 20.7892C45.8926 20.186 47.67 21.0041 48.2667 22.6159C48.6072 23.5358 48.4894 24.5165 48.0286 25.3001C47.8787 25.5067 47.8808 25.6674 47.8808 25.6674L47.3709 33.6314C47.3709 33.6314 47.3393 33.8409 47.528 33.8823C47.717 33.9244 47.7897 33.7391 47.7897 33.7391L51.747 26.4551C52.8272 24.4671 52.2548 22.2856 51.8013 21.1061C51.3469 19.9262 50.3263 17.9335 48.2103 17.1779L38.8246 13.8287C36.7078 13.074 34.5316 12.6239 32.4286 13.4183L21.3657 17.5994C21.3657 17.5994 21.0412 17.754 21.346 17.9915C21.4197 18.0533 21.4928 18.1154 21.5658 18.1769C21.6115 18.2162 21.6578 18.2548 21.7037 18.2937C21.8525 18.4197 21.9997 18.5443 22.1447 18.6671C22.1695 18.6883 22.1955 18.7106 22.2203 18.7318C22.3812 18.8684 22.5373 19.0016 22.6909 19.1324C22.7482 19.1805 22.803 19.227 22.858 19.2744C22.9636 19.3642 23.0667 19.452 23.1679 19.5379C23.2141 19.5778 23.2619 19.6189 23.3072 19.6577C23.4336 19.7659 23.5547 19.869 23.6715 19.9693C23.7337 20.0218 23.7917 20.0719 23.8498 20.1222C23.9389 20.1985 24.0281 20.2738 24.1097 20.3447C24.1347 20.3659 24.162 20.3891 24.1863 20.4104C24.439 20.6273 24.6556 20.8139 24.8233 20.9577L24.8234 20.9589C24.8742 20.9933 24.9108 21.026 24.9392 21.0578C25.1525 21.307 24.7397 21.4902 24.7318 21.4934L21.6771 22.7023C21.6771 22.7023 21.6077 22.7389 21.4624 22.6882C21.3585 22.6516 21.2925 22.5801 21.2639 22.5427C21.2521 22.5281 21.2455 22.5179 21.2455 22.5179L18.7694 19.1549L18.7495 19.1276L18.4387 18.7054L18.437 18.706L15.4588 14.6878C15.4588 14.6878 14.0309 14.5115 13.9233 15.1869L16.5171 18.7C16.5171 18.7 16.7093 18.9542 16.6499 19.1675C16.5895 19.3804 16.3141 19.5084 16.3141 19.5084L9.40935 22.1178C7.63633 22.7878 6.59772 24.591 6.78614 26.4132C7.15342 26.3069 7.55501 26.2444 7.93105 26.3035C9.03291 26.4784 12.0073 28.4266 14.9301 27.3226C17.853 26.2198 22.0299 24.2204 22.0299 24.2204L31.0872 20.2623C31.0872 20.2623 32.8147 19.6824 35.0537 20.2963C35.0422 20.9988 34.7174 21.592 34.2603 22.1126L35.6883 22.6494C36.1349 22.1118 36.4921 21.4654 36.7413 20.7712C38.2868 21.1264 39.8158 21.3773 39.583 22.5987C39.2417 24.3897 33.1603 26.6512 33.1603 26.6512L29.1617 27.5773L29.1587 27.5778C29.1449 27.5809 28.4121 27.756 28.4081 28.3255C28.4076 28.3701 28.4073 28.421 28.4076 28.4707C28.4067 28.5416 28.4056 28.6172 28.4056 28.6976C28.4053 28.7316 28.4048 28.7662 28.405 28.8019C28.4037 28.8694 28.404 28.9391 28.4034 29.012C28.4031 29.0347 28.4023 29.0579 28.4026 29.0805C28.3945 29.9869 28.3814 31.2674 28.3601 32.6448C28.3599 32.6703 28.3595 32.6959 28.3599 32.7217C28.3574 32.8155 28.3568 32.91 28.3554 33.0043C28.3538 33.0886 28.353 33.1735 28.3516 33.2584C28.3498 33.3405 28.3482 33.4231 28.3467 33.5054C28.3443 33.6712 28.3408 33.8372 28.3383 34.0039C28.3362 34.0768 27.5474 34.5479 27.5465 34.6204C27.5457 34.6575 29.1042 34.0602 29.4225 34.0578C29.4225 34.0578 30.3456 34.3537 29.6962 35.4112C29.6962 35.4112 29.1161 35.6848 28.296 35.951C28.2834 36.4872 28.2682 37.0037 28.2506 37.4836C28.2494 37.5343 27.4031 38.1177 27.4008 38.1668C27.3996 38.2149 29.3477 37.2977 29.7864 37.2945C29.7864 37.2945 30.7087 37.5902 30.0599 38.6487C30.0599 38.6487 29.2362 39.0375 28.1646 39.3379C28.14 39.7101 28.1127 39.9997 28.0844 40.1813C27.812 41.8442 25.8847 42.4343 25.8847 42.4343L23.6505 29.5092C23.6505 29.5092 23.6477 29.4903 23.6429 29.4617C23.6134 29.3257 23.4865 28.9395 22.9857 28.9798C22.913 28.9858 22.8353 28.9993 22.7465 29.0245L22.7435 29.0251C22.0875 29.1479 21.0951 29.3369 20.0335 29.5537C20.0266 29.5551 20.0196 29.5565 20.0114 29.5581C19.6737 29.6268 19.3289 29.6991 18.9849 29.7728C18.9607 29.7774 18.9355 29.7829 18.912 29.7883C18.581 29.8588 18.2532 29.9315 17.9343 30.0034C17.9052 30.0098 17.8769 30.0166 17.8489 30.023C17.6942 30.0585 17.5411 30.0939 17.3926 30.1294C17.3728 30.1339 17.3545 30.1379 17.3355 30.1429C17.1997 30.1749 17.0679 30.2072 16.9392 30.2394C16.9161 30.2448 16.8921 30.251 16.8692 30.2563C16.7325 30.2908 16.5996 30.3247 16.4726 30.3585C16.4472 30.3647 16.4235 30.3715 16.3987 30.3781C16.2844 30.4086 16.1738 30.4386 16.0682 30.4687C16.0541 30.4731 16.0373 30.4768 16.0234 30.4816C15.9116 30.5133 15.8071 30.5449 15.7086 30.5756C15.6855 30.5825 15.6634 30.5894 15.6409 30.5966C15.5435 30.6283 15.4506 30.6587 15.3696 30.6888C13.4975 31.368 14.8445 34.2745 14.1841 35.1392C13.524 36.0032 12.9433 36.1985 12.9433 36.1985L11.912 30.6622C11.912 30.6622 11.824 30.4202 11.7286 30.2628C11.6333 30.1049 11.45 29.9922 11.45 29.9922L8.08355 28.2965L5.49672 26.9931C5.49672 26.9931 4.74332 26.7822 4 27.6873L7.78153 29.4932L7.78222 29.491L14.0369 46.3816C14.8234 48.5053 17.1875 49.5937 19.2892 48.7992L42.3082 40.0997C42.5389 40.0127 42.7601 39.9132 42.9726 39.8034C43.9832 39.3375 43.9408 40.0628 43.9408 40.0628L43.9082 40.5659C43.4071 48.3914 43.8963 51.708 48.2267 51.9912C49.4158 52.0687 50.4637 51.6339 51.2562 50.7322C54.9424 46.5452 52.2011 30.8443 51.9136 29.2646ZM11.618 26.2793L10.8031 23.1503C10.8031 23.1503 11.8222 22.6788 12.2139 24.2437C12.7182 26.2568 14.0485 26.2635 14.0485 26.2635C13.3625 26.7442 11.618 26.2793 11.618 26.2793Z" fill="white"/>
</svg>
