<svg width="18" height="2" viewBox="0 0 18 2" fill="none" xmlns="http://www.w3.org/2000/svg">
<path d="M1.12271 1.92925L8.06896 1.93055L16.8765 1.93027C17.1231 1.93028 17.3596 1.83232 17.534 1.65795C17.7083 1.48358 17.8063 1.24708 17.8063 1.00048C17.8063 0.753881 17.7083 0.517376 17.5339 0.342997C17.3595 0.168618 17.123 0.0706481 16.8764 0.0706412L9.92854 0.0709818L1.12266 0.0696258C0.876055 0.069618 0.639555 0.167574 0.465186 0.341943C0.290818 0.516311 0.192864 0.752809 0.192871 0.999411C0.192878 1.24601 0.290847 1.48252 0.465226 1.6569C0.639605 1.83128 0.87611 1.92924 1.12271 1.92925Z" fill="#434342"/>
</svg>
