<svg width="16" height="16" viewBox="0 0 16 16" fill="none" xmlns="http://www.w3.org/2000/svg">
<path d="M7.99999 14V8M7.99999 4.66667H5.29999C3.45333 4.66667 3.33999 2 5.29999 2C7.39999 2 7.99999 4.66667 7.99999 4.66667ZM7.99999 4.66667H10.7C12.6307 4.66667 12.6307 2 10.7 2C8.59999 2 7.99999 4.66667 7.99999 4.66667Z" stroke="black" stroke-width="1.2" stroke-linecap="round" stroke-linejoin="round"/>
<path d="M13.3333 7.99984V12.6665C13.3333 13.0201 13.1929 13.3593 12.9428 13.6093C12.6928 13.8594 12.3536 13.9998 12 13.9998H4C3.64638 13.9998 3.30724 13.8594 3.05719 13.6093C2.80714 13.3593 2.66667 13.0201 2.66667 12.6665V7.99984M14 7.99984V5.99984C14 5.64622 13.8595 5.30708 13.6095 5.05703C13.3594 4.80698 13.0203 4.6665 12.6667 4.6665H3.33333C2.97971 4.6665 2.64057 4.80698 2.39052 5.05703C2.14048 5.30708 2 5.64622 2 5.99984V7.99984H14Z" stroke="black" stroke-width="1.2" stroke-linecap="round" stroke-linejoin="round"/>
</svg>
