<?xml version="1.0" encoding="UTF-8"?> <svg xmlns="http://www.w3.org/2000/svg" width="158" height="188" viewBox="0 0 158 188" fill="none"><path d="M43.1943 138.269C42.1132 138.126 41.0234 138.058 39.9328 138.065L39.1704 138.073H39.2097H36.4905V145.82H39.5241C41.0231 145.929 42.5297 145.77 43.9724 145.35L43.8781 145.373C44.5547 145.103 45.1425 144.65 45.5756 144.065L45.5835 144.057C46.0331 143.362 46.2501 142.542 46.2035 141.716C46.1569 140.89 45.8491 140.1 45.3241 139.459L45.332 139.467C44.7958 138.819 44.0362 138.395 43.2022 138.276H43.1865L43.1943 138.269ZM60.8145 149.979H68.2649L64.5397 139.843L60.8145 149.979Z" fill="#003CFF"></path><path d="M144.034 0H13.9578C6.24801 0 0 6.22724 0 13.9114V174.089C0 181.773 6.24801 188 13.9578 188H144.042C151.752 188 158 181.773 158 174.089V13.9114C158 6.22724 151.744 0 144.034 0ZM81.79 21.3058C82.3558 21.3684 82.9924 21.3684 83.5583 21.4311C85.4602 21.6191 87.1499 22.3711 88.4938 23.5225L88.4781 23.5147C91.4096 26.0917 93.838 29.1545 95.6535 32.5931L95.74 32.7655C96.6752 34.4261 97.6104 36.4157 98.4042 38.4757L98.5142 38.8047C93.6337 39.4627 87.8415 39.917 81.9786 40.058H81.79V21.3058ZM100.801 87.1422C94.5547 86.2443 88.2574 85.742 81.9472 85.6383H81.79V70.4736H103.167C102.923 76.5206 102.067 82.2466 100.652 87.7453L100.778 87.1735L100.801 87.1422ZM81.79 92.359C87.7084 92.4556 93.6158 92.9029 99.4809 93.6984L98.7107 93.6123C97.8434 95.9826 96.8033 98.2864 95.5985 100.505L95.74 100.223C93.9344 103.721 91.4842 106.849 88.5174 109.443L88.4781 109.474C87.1067 110.658 85.3965 111.381 83.5897 111.542H83.5504C82.969 111.616 82.3839 111.658 81.7978 111.667H81.7821L81.79 92.359ZM100.55 102.808C101.862 100.466 103.12 97.7011 104.157 94.8342L104.283 94.4347C107.191 94.936 110.154 95.5705 113.085 96.3147H113.148C112.519 97.0745 111.82 97.7638 111.191 98.3982C107.292 102.316 102.698 105.479 97.6419 107.727L97.3589 107.845C98.4906 106.388 99.5438 104.751 100.448 103.028L100.534 102.847L100.55 102.808ZM124.284 70.4579C123.655 77.6827 121.3 84.6525 117.415 90.7846L117.525 90.5966L116.763 90.4086C113.295 89.4963 109.799 88.6969 106.279 88.0117C107.631 82.8341 108.527 76.8183 108.786 70.6381L108.794 70.4657L124.284 70.4579ZM81.79 46.7317C88.3791 46.5919 94.9549 46.0767 101.485 45.1886L100.613 45.2904C102.019 50.3897 102.955 56.2958 103.198 62.3821L103.206 62.5387H81.8293L81.79 46.7317ZM106.106 44.4053C109.643 43.7787 113.022 43.0189 116.402 42.0711L117.156 41.8831C121.023 47.7422 123.569 54.7762 124.221 62.3586L124.229 62.5231H108.692C108.482 56.2162 107.564 49.9527 105.957 43.8492L106.09 44.4366L106.106 44.4053ZM112.669 36.0945C109.824 36.7916 106.923 37.4183 104.078 37.9196C103.078 35.1273 101.867 32.4146 100.455 29.8046L100.613 30.1179C99.6239 28.3003 98.516 26.5498 97.2961 24.8776L97.3982 25.0265C102.546 27.309 107.233 30.5075 111.23 34.4652C111.67 35.0292 112.181 35.5384 112.684 36.1023L112.669 36.0945ZM69.6005 23.5069C70.9287 22.3632 72.6262 21.6113 74.4889 21.4311H74.5281C75.0469 21.3606 75.6599 21.3136 76.2807 21.3058H76.2965V39.9953C70.4437 39.891 64.6021 39.4438 58.802 38.6559L59.5565 38.7421C60.4917 36.3295 61.427 34.3399 62.4722 32.4208L62.3308 32.7028C64.217 29.131 66.5852 26.0787 69.4354 23.546L69.4669 23.5225L69.6005 23.5069ZM51.8546 88.0195C48.2551 88.7088 44.7185 89.4686 41.3705 90.4164L40.6081 90.6044C36.7613 84.5898 34.444 77.731 33.8571 70.6224L33.8493 70.4657H49.3868C49.5597 76.787 50.4399 82.8262 51.9646 88.607L51.8388 88.0508L51.8546 88.0195ZM44.97 96.3852C47.8749 95.6299 50.8118 95.0027 53.7722 94.5052C54.9511 97.7873 56.2085 100.544 57.6546 103.192L57.4974 102.879C58.5977 104.86 59.6587 106.529 60.814 108.119L60.7118 107.97C55.564 105.688 50.8768 102.489 46.8797 98.5314C46.251 97.8343 45.6223 97.145 44.9935 96.3852H44.97ZM59.3679 93.6123C64.3977 92.8838 70.2606 92.4295 76.21 92.359H76.2886V111.675C74.8733 111.592 73.4625 111.446 72.0604 111.237C71.1919 110.696 70.3597 110.099 69.569 109.451L69.6005 109.474C66.6776 106.905 64.2464 103.829 62.4251 100.396L62.3386 100.223C61.2378 98.2245 60.2843 96.1485 59.4858 94.0118L59.36 93.6436L59.3679 93.6123ZM76.2965 85.6148C69.4669 85.7479 62.8888 86.2884 56.4443 87.2284L57.2931 87.1265C55.866 81.7242 55.041 76.1815 54.8332 70.5989L54.8253 70.4501H76.2965V85.6148ZM57.4817 45.2748C63.6852 46.1955 69.9461 46.6798 76.2179 46.7239H76.2965V62.5231H54.8253C55.1161 56.2802 56.0592 50.3897 57.5917 44.7421L57.4581 45.3218L57.4817 45.2748ZM60.6961 25.0108C59.643 26.4599 58.5741 28.1205 57.6074 29.8516L57.4738 30.1101C56.1546 32.493 55.0323 34.9791 54.118 37.5436L54.008 37.9118C51.1264 37.3922 48.2616 36.7835 45.4179 36.0867H45.3551C45.8476 35.5291 46.3534 34.9832 46.8719 34.4496C50.7893 30.5845 55.3669 27.4466 60.3896 25.1831L60.6804 25.0656L60.6961 25.0108ZM41.6927 42.0632C45.0407 42.9484 48.4515 43.7003 51.9882 44.3975C50.4425 50.2713 49.5542 56.2977 49.3396 62.3664L49.3318 62.5231H33.7943C34.4252 55.092 36.9137 47.9368 41.0325 41.7108L40.9304 41.8753L41.6927 42.0632ZM48.7659 148.749C47.8998 149.339 46.9409 149.781 45.9288 150.057L45.8659 150.073C44.2127 150.333 42.5412 150.461 40.8675 150.456L40.0816 150.449H40.1209H36.5214V160.772H30.965V133.396H39.8694C42.1278 133.291 44.3908 133.449 46.6125 133.866L46.4318 133.835C48.0128 134.276 49.4062 135.219 50.4006 136.521L50.4163 136.537C51.4066 138.049 51.996 139.898 51.996 141.887C51.996 143.422 51.6502 144.871 51.0215 146.164L51.0451 146.101C50.5461 147.179 49.764 148.102 48.7816 148.772L48.7581 148.788L48.7659 148.749ZM72.5084 160.765L70.1035 154.537H59.1007L56.8215 160.765H50.9508L61.6392 133.388H67.5099L78.497 160.765H72.5084ZM101.116 157.177C100.239 158.555 98.9536 159.626 97.4375 160.24L97.3825 160.255C95.7635 160.898 93.893 161.274 91.9283 161.274L91.3546 161.266H91.3781C88.4899 161.448 85.632 160.592 83.3225 158.853L83.354 158.877C81.3954 157.065 80.2014 154.578 80.0138 151.921V151.89L85.3816 151.389C85.5702 152.955 86.2776 154.326 87.3385 155.344C88.5332 156.151 89.9386 156.591 91.3813 156.61C92.824 156.63 94.2409 156.228 95.457 155.454L95.4256 155.47C95.841 155.161 96.1816 154.764 96.4224 154.307C96.6631 153.85 96.7979 153.346 96.8167 152.83V152.759C96.8259 152.182 96.6217 151.622 96.2429 151.185C95.6741 150.655 94.9991 150.26 94.2624 150.01L94.2231 150.002C93.5944 149.751 92.0776 149.375 89.822 148.804C87.5451 148.38 85.3949 147.445 83.5347 146.07L83.574 146.101C82.7854 145.439 82.1517 144.612 81.7172 143.68C81.2828 142.748 81.0582 141.732 81.0591 140.704V140.508C81.0591 139.067 81.5071 137.736 82.2773 136.639L82.2615 136.662C83.1103 135.448 84.2656 134.493 85.6174 133.913L85.6645 133.897C87.1656 133.294 88.9025 132.95 90.7258 132.95L91.1109 132.957H91.0952C93.8868 132.736 96.6618 133.553 98.8836 135.253L98.8522 135.229C99.7041 135.963 100.388 136.871 100.857 137.891C101.326 138.912 101.57 140.021 101.571 141.143V141.276L96.015 141.519C95.8872 140.365 95.3491 139.296 94.4982 138.503C93.58 137.875 92.492 137.539 91.3781 137.54L90.9459 137.555H90.9616C89.6178 137.464 88.282 137.823 87.1656 138.574L87.1892 138.558C86.9174 138.752 86.6952 139.007 86.5409 139.302C86.3866 139.597 86.3044 139.925 86.3011 140.258V140.281C86.3011 140.939 86.6234 141.527 87.1185 141.895H87.1263C88.6039 142.764 90.325 143.407 92.1562 143.704L92.2426 143.712C94.5296 144.206 96.5337 144.879 98.4278 145.741L98.2392 145.663C99.4888 146.328 100.51 147.268 101.249 148.404L101.265 148.435C101.979 149.646 102.354 151.026 102.349 152.43L102.342 152.791V152.775V152.986C102.342 154.569 101.87 156.041 101.053 157.263L101.068 157.232L101.116 157.177ZM126.689 157.177C125.813 158.555 124.527 159.626 123.011 160.24L122.956 160.255C121.337 160.898 119.467 161.274 117.502 161.274L116.928 161.266H116.952C114.064 161.448 111.206 160.592 108.896 158.853L108.928 158.877C106.969 157.065 105.775 154.578 105.587 151.921V151.89L110.955 151.389C111.144 152.955 111.851 154.326 112.912 155.344C114.107 156.151 115.512 156.591 116.955 156.61C118.398 156.63 119.815 156.228 121.031 155.454L120.999 155.47C121.415 155.161 121.755 154.764 121.996 154.307C122.237 153.85 122.371 153.346 122.39 152.83V152.759C122.4 152.182 122.195 151.622 121.817 151.185C121.248 150.655 120.573 150.26 119.836 150.01L119.797 150.002C119.168 149.751 117.651 149.375 115.396 148.804C113.119 148.38 110.969 147.445 109.108 146.07L109.148 146.101C108.359 145.439 107.725 144.612 107.291 143.68C106.856 142.748 106.632 141.732 106.633 140.704V140.508C106.633 139.067 107.081 137.736 107.851 136.639L107.835 136.662C108.672 135.45 109.835 134.497 111.191 133.913L111.238 133.897C112.739 133.294 114.484 132.95 116.299 132.95L116.685 132.957H116.669C119.46 132.736 122.235 133.553 124.457 135.253L124.426 135.229C125.278 135.963 125.961 136.871 126.431 137.891C126.9 138.912 127.143 140.021 127.145 141.143V141.276L121.589 141.519C121.461 140.365 120.923 139.296 120.072 138.503C119.154 137.875 118.066 137.539 116.952 137.54L116.519 137.555H116.535C115.191 137.464 113.856 137.823 112.739 138.574L112.763 138.558C112.491 138.752 112.269 139.007 112.115 139.302C111.96 139.597 111.878 139.925 111.875 140.258V140.281C111.875 140.939 112.197 141.527 112.692 141.895H112.7C114.17 142.764 115.891 143.399 117.722 143.704L117.808 143.72C120.095 144.213 122.099 144.887 123.994 145.749L123.805 145.67C125.055 146.336 126.076 147.276 126.815 148.412L126.831 148.443C127.545 149.654 127.92 151.034 127.915 152.438L127.907 152.798V152.783L127.923 153.245C127.914 154.688 127.462 156.093 126.626 157.271L126.689 157.177Z" fill="#003CFF"></path></svg> 