<svg width="17" height="16" viewBox="0 0 17 16" fill="none" xmlns="http://www.w3.org/2000/svg">
<path d="M1.75674 10.3691L5.37913 8.74523L5.39297 8.73907C5.62843 8.63756 5.88558 8.5967 6.1409 8.62022C6.39623 8.64373 6.64159 8.73088 6.85454 8.87369C6.88439 8.89368 6.91315 8.91525 6.9407 8.93831L8.65689 10.3999C9.65691 9.85756 10.69 8.83292 11.2331 7.84521L9.76691 6.1021C9.74334 6.07396 9.7215 6.04442 9.70152 6.01363C9.56246 5.80144 9.47803 5.55815 9.45575 5.30543C9.43347 5.0527 9.47403 4.79839 9.57383 4.56514C9.5762 4.56067 9.57825 4.55605 9.57998 4.55129L11.2031 0.922758C11.3363 0.619309 11.5637 0.366814 11.8516 0.202643C12.1395 0.0384711 12.4726 -0.0286541 12.8016 0.0112009C13.9182 0.157891 14.9433 0.706041 15.6854 1.55327C16.4274 2.40051 16.8357 3.48889 16.834 4.61514C16.834 10.893 11.7269 16 5.44913 16C4.32287 16.0017 3.23449 15.5935 2.38726 14.8514C1.54003 14.1093 0.991876 13.0843 0.845185 11.9676C0.80533 11.6386 0.872456 11.3055 1.03663 11.0176C1.2008 10.7297 1.45329 10.5023 1.75674 10.3691ZM5.44913 14.1538C7.978 14.1507 10.4024 13.1448 12.1906 11.3566C13.9788 9.56844 14.9847 7.14401 14.9878 4.61514C14.9895 3.97782 14.7732 3.35908 14.3746 2.86173C13.9761 2.36439 13.4194 2.0184 12.797 1.88124L11.3492 5.11208L12.8231 6.8675C12.8469 6.89589 12.869 6.92568 12.8893 6.95673C13.0346 7.1787 13.12 7.43446 13.1372 7.69918C13.1545 7.9639 13.103 8.22858 12.9877 8.46753C12.2631 9.95064 10.77 11.4337 9.27151 12.1599C9.03097 12.274 8.76496 12.3236 8.49947 12.3041C8.23398 12.2845 7.97811 12.1964 7.75687 12.0484C7.72712 12.0283 7.69861 12.0065 7.67148 11.983L5.94606 10.516L2.71522 11.963C2.85238 12.5854 3.19838 13.1421 3.69572 13.5407C4.19306 13.9392 4.8118 14.1556 5.44913 14.1538Z" fill="#656564"/>
</svg>
