<svg width="18" height="18" viewBox="0 0 18 18" fill="none" xmlns="http://www.w3.org/2000/svg">
<path d="M18 3.71542C18 4.14829 18 4.29254 17.852 4.58112C17.7041 5.73542 17.2602 6.8898 16.8163 7.89982C15.3368 10.9299 13.2654 13.2385 10.4542 15.2585C8.38278 16.7014 6.16343 17.7114 3.64816 18C3.05633 18 2.4645 17.9999 1.87267 17.5671C1.57676 17.2785 1.28085 17.1342 1.13289 16.8456C0.689018 16.4128 0.393097 15.9799 0.0971832 15.4027C-0.0507736 15.1142 -0.0507641 14.9699 0.24515 14.6813C0.393106 14.537 0.393103 14.3927 0.541059 14.2485C1.57676 13.2384 2.76042 12.3727 4.09203 11.6513C4.5359 11.3627 4.5359 11.3627 4.97977 11.7955C5.27569 12.2284 5.5716 12.6613 5.86751 13.0942C6.01547 13.3827 6.31138 13.6713 6.6073 13.9599C6.90321 14.2484 7.34709 14.3927 7.79096 14.2485C7.93892 14.1042 8.23483 14.1041 8.38279 13.9599C9.56645 13.3827 10.7501 12.517 11.6378 11.507C12.8215 10.3527 13.7092 9.19836 14.449 7.75548C14.597 7.32261 14.597 7.03405 14.3011 6.60119C14.0052 6.31261 13.7092 6.02407 13.2654 5.7355C12.8215 5.44692 12.2297 5.15832 11.7858 4.72546C11.4899 4.43688 11.4899 4.43688 11.6378 4.00402C12.0817 3.13829 12.5256 2.41679 13.1174 1.69535C13.5613 1.1182 14.0052 0.541081 14.597 0.108216C14.8929 -0.0360721 15.0409 -0.0360721 15.3368 0.108216C16.2245 0.541081 16.9643 1.11825 17.4082 1.83969C17.852 2.84971 18 3.28256 18 3.71542Z" fill="currentColor"/>
</svg>
