<svg width="16" height="16" viewBox="0 0 16 16" fill="none" xmlns="http://www.w3.org/2000/svg">
<path d="M9.14272 1.8125C9.14272 1.19023 8.632 0.6875 7.99986 0.6875C7.36772 0.6875 6.857 1.19023 6.857 1.8125V6.875H1.71415C1.082 6.875 0.571289 7.37773 0.571289 8C0.571289 8.62227 1.082 9.125 1.71415 9.125H6.857V14.1875C6.857 14.8098 7.36772 15.3125 7.99986 15.3125C8.632 15.3125 9.14272 14.8098 9.14272 14.1875V9.125H14.2856C14.9177 9.125 15.4284 8.62227 15.4284 8C15.4284 7.37773 14.9177 6.875 14.2856 6.875H9.14272V1.8125Z" fill="currentColor"/>
</svg>
