<svg width="18" height="18" viewBox="0 0 18 18" fill="none" xmlns="http://www.w3.org/2000/svg">
<path d="M9.92868 16.8764C9.92869 17.123 9.83073 17.3595 9.65637 17.5338C9.482 17.7082 9.2455 17.8062 8.9989 17.8062C8.7523 17.8062 8.51579 17.7082 8.34141 17.5338C8.16703 17.3594 8.06906 17.1229 8.06906 16.8763L8.06994 9.93006L1.12369 9.92876C0.877087 9.92876 0.640582 9.83079 0.466203 9.65641C0.291824 9.48203 0.193855 9.24552 0.193848 8.99892C0.19384 8.75232 0.291795 8.51582 0.466164 8.34145C0.640532 8.16709 0.877031 8.06913 1.12363 8.06914L8.06989 8.07044L8.07077 1.12418C8.07077 0.877583 8.16872 0.641084 8.34309 0.466716C8.51746 0.292347 8.75396 0.194392 9.00056 0.194399C9.24716 0.194407 9.48366 0.292376 9.65804 0.466755C9.83242 0.641134 9.93039 0.877639 9.9304 1.12424L9.92951 8.07049L16.8774 8.07015C17.124 8.07016 17.3605 8.16813 17.5349 8.34251C17.7093 8.51689 17.8072 8.75339 17.8072 8.99999C17.8073 9.2466 17.7093 9.48309 17.5349 9.65746C17.3606 9.83183 17.1241 9.92979 16.8775 9.92978L9.92957 9.93012L9.92868 16.8764Z" fill="#434342"/>
</svg>
