<svg width="42" height="42" viewBox="0 0 42 42" fill="none" xmlns="http://www.w3.org/2000/svg">
<circle cx="21" cy="21" r="21" fill="#171715" fill-opacity="0.1"/>
<path d="M34.5 37C34.2072 37.2959 33.8109 37.7234 33.5 38C32.8875 38.5467 32.1755 39.0369 31.5 39.5C28.4627 41.583 24.9074 42 20.9997 42C17.0921 42 13.5373 41.583 10.5 39.5C9.82449 39.0369 9.11249 38.5467 8.5 38C8.18913 37.7234 7.7928 37.2959 7.5 37C8.22634 34.6548 10.0816 32.0839 12.4244 31.3135L18.1288 29.4366V28.4566C17.4138 28.0141 16.7749 27.5081 16.2481 27.1374C15.268 26.4484 14.6085 25.3686 14.4136 24.154L14.1094 22.2579C13.1566 22.2579 12.3866 21.4556 12.3866 20.4629C12.3866 19.7249 12.8117 19.092 13.4217 18.8167C12.889 17.5154 12.4984 16.1362 12.2635 14.722C12.1144 13.826 12.0304 12.881 12.2829 12.017C12.5349 11.1529 13.2029 10.3948 13.9909 10.38L14.0943 10.3874C14.5917 9.57809 15.3688 9.04497 16.1847 8.73683C17.0005 8.42825 17.8617 8.32364 18.7149 8.22121C19.0484 8.18138 19.3836 8.14068 19.7197 8.10566C21.2694 7.95027 22.9569 7.91263 24.5415 8.37222C26.1265 8.83224 27.6578 9.86347 28.4647 11.5075C29.1058 12.8118 29.2356 14.3854 29.0743 15.874C28.9676 16.8619 28.7403 17.8235 28.4736 18.7729C29.1386 19.0211 29.6129 19.6833 29.6129 20.4629C29.6129 21.4556 28.8437 22.2579 27.8901 22.2579L27.5859 24.154C27.391 25.3686 26.7319 26.4484 25.7518 27.1374C25.2242 27.5081 24.586 28.0141 23.8711 28.4566V29.4366L29.575 31.3135C31.9183 32.0843 33.6945 33.9852 34.4212 36.33L34.5 37Z" fill="#B2B2B1"/>
</svg>
