<?xml version="1.0" encoding="UTF-8"?> <svg xmlns="http://www.w3.org/2000/svg" width="188" height="188" viewBox="0 0 188 188" fill="none"><path d="M120.734 169.2H42.3C29.3374 169.2 18.8 158.663 18.8 145.7C18.8 132.737 29.3374 122.2 42.3 122.2H108.1C126.242 122.2 141 107.442 141 89.3C141 71.158 126.242 56.4 108.1 56.4H62.4066C58.9555 63.1675 54.6805 69.4821 49.679 75.2H108.1C115.874 75.2 122.2 81.5262 122.2 89.3C122.2 97.0738 115.874 103.4 108.1 103.4H42.3C18.9786 103.4 0 122.379 0 145.7C0 169.021 18.9786 188 42.3 188H132.474C127.861 182.199 123.922 175.891 120.734 169.2ZM28.2 0C12.6524 0 0 12.6524 0 28.2C0 58.1672 28.2 75.2 28.2 75.2C28.2 75.2 56.4 58.1578 56.4 28.2C56.4 12.6524 43.7476 0 28.2 0ZM28.2 42.3C26.3477 42.2994 24.5137 41.9339 22.8027 41.2245C21.0917 40.5151 19.5372 39.4757 18.2278 38.1655C16.9185 36.8553 15.8801 35.3001 15.1719 33.5886C14.4636 31.8771 14.0994 30.0429 14.1 28.1906C14.1006 26.3383 14.4661 24.5043 15.1755 22.7933C15.8849 21.0823 16.9243 19.5278 18.2345 18.2184C19.5447 16.9091 21.0999 15.8707 22.8114 15.1625C24.5229 14.4542 26.3571 14.09 28.2094 14.0906C31.9502 14.0918 35.5373 15.5791 38.1816 18.2251C40.8258 20.8711 42.3106 24.4592 42.3094 28.2C42.3082 31.9408 40.8209 35.5279 38.1749 38.1722C35.5289 40.8164 31.9408 42.3012 28.2 42.3Z" fill="#003CFF"></path><path d="M159.8 112.8C144.252 112.8 131.6 125.452 131.6 141C131.6 170.967 159.8 188 159.8 188C159.8 188 188 170.958 188 141C188 125.452 175.348 112.8 159.8 112.8ZM159.8 155.1C157.948 155.099 156.114 154.734 154.403 154.025C152.692 153.315 151.137 152.276 149.828 150.965C148.519 149.655 147.48 148.1 146.772 146.389C146.064 144.677 145.699 142.843 145.7 140.991C145.701 139.138 146.066 137.304 146.775 135.593C147.485 133.882 148.524 132.328 149.834 131.018C151.145 129.709 152.7 128.671 154.411 127.962C156.123 127.254 157.957 126.89 159.809 126.891C163.55 126.892 167.137 128.379 169.782 131.025C172.426 133.671 173.911 137.259 173.909 141C173.908 144.741 172.421 148.328 169.775 150.972C167.129 153.616 163.541 155.101 159.8 155.1Z" fill="#003CFF"></path></svg> 