<svg width="19" height="16" viewBox="0 0 19 16" fill="none" xmlns="http://www.w3.org/2000/svg">
<path d="M16.8777 0.0013747C16.6415 0.0117962 16.4214 0.080601 16.2277 0.15892C16.0462 0.231926 15.3527 0.529344 14.2605 0.99774C13.1673 1.46654 11.7198 2.08801 10.1757 2.75203C7.08745 4.08006 3.61549 5.57497 1.83714 6.34008C1.77026 6.36884 1.53693 6.44338 1.28928 6.63672C1.04162 6.83006 0.77832 7.23068 0.77832 7.67708C0.77832 8.03704 0.949869 8.39465 1.1658 8.60816C1.38172 8.82167 1.6102 8.92713 1.80591 9.00699C2.51601 9.29673 4.71834 10.198 5.13423 10.3681C5.28059 10.8165 6.07773 13.2549 6.26259 13.8526C6.38445 14.2469 6.50045 14.4939 6.65148 14.69C6.727 14.788 6.81478 14.8739 6.92116 14.9412C6.96368 14.9681 7.0103 14.9888 7.05741 15.0079L7.06025 15.0093C7.07111 15.0137 7.08047 15.0211 7.09148 15.0249C7.11225 15.0322 7.12614 15.0331 7.15393 15.0391C7.26462 15.0749 7.37638 15.0973 7.47611 15.0973C7.90135 15.0973 8.16165 14.8631 8.16165 14.8631L8.17726 14.8518L10.3644 12.9598L13.0172 15.4692C13.0545 15.522 13.4028 16 14.1711 16C14.6272 16 14.9891 15.7711 15.2214 15.5274C15.4537 15.2836 15.5984 15.0275 15.6599 14.7056V14.7042C15.7175 14.3999 18.1622 1.84934 18.1622 1.84934L18.1579 1.86637C18.2295 1.53971 18.2483 1.23549 18.1693 0.93529C18.0903 0.635086 17.8823 0.347656 17.6243 0.192984C17.3663 0.0383457 17.1139 -0.00904689 16.8777 0.0013747ZM16.7415 1.52005C16.738 1.54126 16.7441 1.5306 16.7386 1.55553L16.7372 1.56405L16.7358 1.57257C16.7358 1.57257 14.3213 13.9626 14.2321 14.4345C14.2386 14.3988 14.2088 14.4697 14.1782 14.5125C14.1349 14.4827 14.0462 14.4444 14.0462 14.4444L14.032 14.4288L10.4084 11.0011L7.84656 13.2153L8.60873 10.1637C8.60873 10.1637 13.3731 5.23193 13.6601 4.94488C13.8912 4.71525 13.9397 4.6352 13.9397 4.55599C13.9397 4.44989 13.8844 4.37289 13.7609 4.37289C13.6497 4.37289 13.5002 4.48099 13.4202 4.53186C12.3788 5.19573 7.80678 7.8604 5.75731 9.05241C5.43162 8.91912 3.1689 7.9929 2.40203 7.67992C2.40783 7.67738 2.40592 7.67828 2.41196 7.67566C4.19078 6.91035 7.6613 5.41546 10.7491 4.08761C12.293 3.42369 13.7416 2.80175 14.8339 2.33332C15.9094 1.87211 16.6567 1.55469 16.7415 1.52005Z" fill="#656564"/>
</svg>
