<svg width="22" height="18" viewBox="0 0 22 18" fill="none" xmlns="http://www.w3.org/2000/svg">
<path d="M20.8055 0C21.3199 0.0255437 21.5771 0.321425 21.4797 0.810303C21.0663 2.87509 20.65 4.93916 20.2366 7.00465C19.6341 10.0131 19.0337 13.0216 18.4326 16.0301C18.3581 16.4026 18.2857 16.7751 18.2091 17.1469C18.0909 17.7188 17.4296 18.1176 16.812 17.9686C16.62 17.9225 16.423 17.8359 16.2668 17.7181C13.8351 15.8818 11.4107 14.0377 8.98404 12.195C8.97401 12.1872 8.9647 12.1801 8.95467 12.1723C8.7254 11.997 8.72397 11.9559 8.93389 11.7686C9.65679 11.125 10.3797 10.4821 11.1019 9.83859C13.2598 7.915 15.4178 5.99213 17.5743 4.06713C17.6746 3.97772 17.7763 3.88052 17.843 3.76699C17.8809 3.70242 17.873 3.58463 17.8372 3.5151C17.8157 3.47324 17.6904 3.45053 17.6287 3.4704C17.4776 3.51865 17.3264 3.5818 17.1924 3.66552C13.507 5.97936 9.82372 8.29674 6.1426 10.6163C6.03871 10.6815 5.95274 10.695 5.83524 10.6553C4.34645 10.1543 2.85624 9.65907 1.36673 9.16026C1.07944 9.06447 0.825098 8.91547 0.646701 8.665C0.429617 8.3606 0.448961 8.0711 0.734825 7.83128C0.901758 7.6915 1.09807 7.56945 1.30082 7.49069C6.74657 5.36844 12.1952 3.25328 17.6431 1.13669C18.4312 0.83017 19.2164 0.51726 20.0088 0.220669C20.2646 0.124171 20.539 0.0716643 20.8055 0Z" fill="currentColor"/>
</svg>
