<?xml version="1.0" encoding="UTF-8"?> <svg xmlns="http://www.w3.org/2000/svg" width="204" height="188" viewBox="0 0 204 188" fill="none"><path d="M114.75 0L0 112.8L70.125 181.733L184.875 68.9333V0H114.75ZM146.625 50.1333C144.103 50.1333 141.638 49.3983 139.541 48.0211C137.445 46.6439 135.811 44.6865 134.846 42.3963C133.881 40.1061 133.628 37.5861 134.12 35.1549C134.612 32.7236 135.826 30.4904 137.609 28.7376C139.393 26.9848 141.664 25.7911 144.138 25.3075C146.611 24.8239 149.174 25.0721 151.504 26.0207C153.834 26.9693 155.825 28.5758 157.226 30.6369C158.627 32.698 159.375 35.1211 159.375 37.6C159.375 40.924 158.032 44.1119 155.641 46.4624C153.25 48.8129 150.007 50.1333 146.625 50.1333Z" fill="#003CFF"></path><path d="M191.25 18.8V75.2L86.4211 178.248L96.4219 188L204 81.4667V18.8H191.25Z" fill="#003CFF"></path></svg> 