<?xml version="1.0" encoding="UTF-8"?> <svg xmlns="http://www.w3.org/2000/svg" width="204" height="204" viewBox="0 0 204 204" fill="none"><path d="M117.729 83.0134L106.996 93.7467C106.707 94.0091 106.364 94.2036 105.99 94.3162C105.616 94.4287 105.222 94.4564 104.837 94.3972L80.5433 88.7595L79.7844 89.5184L97.5641 98.8423C97.8761 99.0008 98.1461 99.2309 98.3519 99.5139C98.5577 99.7968 98.6935 100.125 98.7482 100.47C98.8028 100.816 98.7748 101.169 98.6663 101.502C98.5579 101.835 98.3721 102.137 98.1242 102.384L87.2197 113.289C86.9768 113.531 86.6797 113.713 86.3531 113.818C86.0264 113.923 85.6794 113.949 85.3406 113.894L79.8025 113.135L85.8736 116.605C86.2565 116.786 86.5635 117.096 86.7409 117.481L86.7319 117.472L90.1017 123.444L89.3247 117.897C89.2652 117.554 89.2891 117.201 89.3945 116.87C89.4998 116.538 89.6835 116.236 89.9301 115.99L100.744 105.176C100.989 104.931 101.289 104.748 101.619 104.642C101.949 104.537 102.3 104.512 102.641 104.57H102.65C103.008 104.598 103.351 104.726 103.639 104.94C103.927 105.155 104.148 105.446 104.277 105.781L104.268 105.772L113.609 123.571L114.368 122.812L108.713 98.5081C108.653 98.1224 108.681 97.7284 108.794 97.3548C108.906 96.9813 109.101 96.6375 109.363 96.3487L120.096 85.6154C120.406 85.2575 120.579 84.8005 120.582 84.3268C120.585 83.853 120.419 83.3936 120.114 83.0315C119.716 82.399 118.379 82.381 117.729 83.0315V83.0134Z" fill="#003CFF"></path><path d="M119.247 4.51916L106.671 17.0956C107.569 17.9937 108.281 19.06 108.767 20.2335C109.253 21.407 109.504 22.6647 109.504 23.9349C109.504 25.2051 109.253 26.4628 108.767 27.6363C108.281 28.8098 107.569 29.8761 106.671 30.7743C105.773 31.6724 104.706 32.3849 103.533 32.8709C102.36 33.357 101.102 33.6072 99.8317 33.6072C97.2666 33.6072 94.8065 32.5882 92.9927 30.7743L4.51896 119.252C1.62535 122.149 0 126.076 0 130.17C0 134.265 1.62535 138.192 4.51896 141.089L62.9082 199.481C65.8049 202.375 69.7319 204 73.8263 204C77.9206 204 81.8476 202.375 84.7443 199.481L173.227 110.994C171.681 109.128 170.882 106.756 170.982 104.335C171.082 101.914 172.075 99.6165 173.769 97.8847C175.482 96.1671 177.778 95.1561 180.201 95.0523C182.624 94.9486 184.998 95.7596 186.851 97.3245L186.878 97.3516L199.481 84.7481C202.375 81.8512 204 77.9241 204 73.8295C204 69.735 202.375 65.8079 199.481 62.911L141.092 4.51916C138.195 1.62542 134.268 0 130.174 0C126.079 0 122.152 1.62542 119.256 4.51916L119.238 4.53723L119.247 4.51916ZM54.5243 110.868L71.8703 93.5209C72.0083 93.3623 72.1774 93.2338 72.367 93.1433C72.5567 93.0528 72.7629 93.0021 72.973 92.9945C73.183 92.9869 73.3923 93.0224 73.5881 93.099C73.7838 93.1755 73.9617 93.2915 74.1108 93.4395C74.2589 93.5887 74.3748 93.7666 74.4514 93.9624C74.5279 94.1581 74.5635 94.3675 74.5559 94.5775C74.5482 94.7875 74.4976 94.9938 74.4071 95.1834C74.3165 95.3731 74.188 95.5422 74.0295 95.6802L56.6203 113.09C56.4859 113.225 56.3262 113.333 56.1502 113.406C55.9742 113.479 55.7855 113.517 55.5949 113.517C55.4043 113.517 55.2155 113.479 55.0396 113.406C54.8636 113.333 54.7038 113.225 54.5695 113.09L54.5062 113.018C54.2205 112.729 54.0611 112.338 54.0628 111.932C54.0645 111.525 54.2272 111.136 54.5153 110.85L54.5243 110.868ZM78.9171 97.7491C79.0551 97.5906 79.2242 97.4621 79.4139 97.3716C79.6035 97.281 79.8097 97.2304 80.0198 97.2228C80.2298 97.2152 80.4391 97.2507 80.6349 97.3273C80.8306 97.4038 81.0085 97.5197 81.1577 97.6678C81.3058 97.817 81.4217 97.9949 81.4982 98.1906C81.5747 98.3864 81.6103 98.5957 81.6027 98.8058C81.5951 99.0158 81.5444 99.222 81.4539 99.4117C81.3634 99.6014 81.2349 99.7704 81.0764 99.9084L71.8522 109.133C71.7142 109.291 71.5452 109.42 71.3555 109.511C71.1659 109.601 70.9596 109.652 70.7496 109.659C70.5396 109.667 70.3302 109.631 70.1345 109.555C69.9388 109.478 69.7608 109.362 69.6117 109.214C69.4636 109.065 69.3477 108.887 69.2712 108.691C69.1946 108.496 69.1591 108.286 69.1667 108.076C69.1743 107.866 69.225 107.66 69.3155 107.47C69.406 107.281 69.5345 107.112 69.693 106.974L78.9171 97.7491ZM63.387 169.223C64.2814 170.118 64.2814 171.581 63.387 172.476C62.4926 173.37 61.029 173.37 60.1346 172.476L31.5137 143.854C30.6193 142.959 30.6193 141.496 31.5137 140.601C32.4081 139.707 33.8717 139.707 34.7661 140.601L63.387 169.223ZM63.9291 157.406C64.8235 158.3 64.8235 159.764 63.9291 160.658C63.0347 161.553 61.5711 161.553 60.6767 160.658L43.3307 143.312C42.4363 142.417 42.4363 140.953 43.3307 140.059C44.2251 139.165 45.6887 139.165 46.5831 140.059L63.9291 157.406ZM109.661 131.404L92.3603 148.705C92.2223 148.864 92.0532 148.992 91.8636 149.083C91.6739 149.173 91.4677 149.224 91.2577 149.232C91.0476 149.239 90.8383 149.204 90.6426 149.127C90.4468 149.051 90.2689 148.935 90.1198 148.787C89.9717 148.638 89.8558 148.46 89.7792 148.264C89.7027 148.068 89.6671 147.859 89.6748 147.649C89.6824 147.439 89.733 147.232 89.8236 147.043C89.9141 146.853 90.0426 146.684 90.2011 146.546L107.61 129.136C107.745 129.001 107.904 128.893 108.08 128.82C108.256 128.747 108.445 128.709 108.636 128.709C108.826 128.709 109.015 128.747 109.191 128.82C109.367 128.893 109.527 129.001 109.661 129.136L109.724 129.208C109.989 129.506 110.134 129.89 110.134 130.288C110.134 130.686 109.989 131.07 109.724 131.368L109.661 131.404ZM95.8295 133.31C95.5367 133.57 95.1556 133.709 94.7641 133.697C94.3725 133.686 94.0002 133.525 93.7233 133.248C93.4463 132.971 93.2856 132.599 93.2741 132.207C93.2626 131.816 93.4011 131.435 93.6613 131.142L102.885 121.917C103.178 121.657 103.559 121.518 103.951 121.53C104.342 121.542 104.715 121.702 104.992 121.979C105.269 122.256 105.429 122.629 105.441 123.02C105.452 123.412 105.314 123.793 105.054 124.086L95.8295 133.31ZM123.692 88.9764L113.826 98.8423L119.463 123.128C119.523 123.514 119.495 123.908 119.382 124.281C119.27 124.655 119.075 124.998 118.813 125.287L114.865 129.235C114.62 129.481 114.32 129.663 113.99 129.769C113.66 129.874 113.309 129.899 112.968 129.841H112.959C112.601 129.813 112.258 129.685 111.97 129.471C111.683 129.257 111.461 128.965 111.333 128.63L111.342 128.639L102.036 110.877L94.2304 118.683L94.9893 124.429C95.0489 124.772 95.0249 125.124 94.9196 125.456C94.8142 125.788 94.6305 126.089 94.384 126.335L91.3665 129.353C91.1217 129.598 90.8216 129.781 90.4915 129.886C90.1614 129.992 89.8109 130.016 89.4693 129.958H89.4603C89.1025 129.931 88.7598 129.803 88.4719 129.588C88.1841 129.374 87.9629 129.082 87.8341 128.747L87.8431 128.757L83.2898 120.517L75.0323 115.945C74.4474 115.563 74.0206 114.982 73.8308 114.31L73.8398 114.328C73.7803 113.985 73.8042 113.633 73.9095 113.301C74.0149 112.969 74.1986 112.667 74.4451 112.422L77.4626 109.404C77.7075 109.159 78.0075 108.976 78.3376 108.871C78.6677 108.765 79.0182 108.741 79.3598 108.799H79.3689L85.1147 109.558L92.9204 101.752L74.9239 92.2108C74.612 92.0524 74.342 91.8222 74.1362 91.5393C73.9303 91.2563 73.7945 90.9286 73.7399 90.583C73.6852 90.2374 73.7133 89.8837 73.8217 89.551C73.9302 89.2184 74.1159 88.9162 74.3638 88.6692L78.3028 84.73C78.5916 84.4676 78.9353 84.2731 79.3088 84.1605C79.6824 84.048 80.0764 84.0203 80.462 84.0795H80.4711L104.755 89.7172L114.621 79.8512C115.834 78.6528 117.47 77.9808 119.174 77.9808C120.879 77.9808 122.515 78.6528 123.728 79.8512C124.896 81.0832 125.545 82.7184 125.538 84.4165C125.531 86.1146 124.87 87.7537 123.692 88.9764ZM165.322 84.8565C166.216 85.7509 166.216 87.2146 165.322 88.109C164.428 89.0035 162.964 89.0035 162.07 88.109L160.986 87.0248C160.091 86.1304 160.091 84.6668 160.986 83.7723C161.88 82.8779 163.343 82.8779 164.238 83.7723L165.322 84.8565ZM157.733 77.2673C158.628 78.1617 158.628 79.6254 157.733 80.5198C156.839 81.4142 155.375 81.4142 154.481 80.5198L153.397 79.4356C152.502 78.5412 152.502 77.0775 153.397 76.1831C154.291 75.2887 155.755 75.2887 156.649 76.1831L157.733 77.2673ZM150.144 69.6781C151.039 70.5725 151.039 72.0361 150.144 72.9306C149.25 73.825 147.786 73.825 146.892 72.9306L145.799 71.8374C144.904 70.9429 144.904 69.4793 145.799 68.5848C146.693 67.6904 148.157 67.6904 149.051 68.5848L150.144 69.6781ZM142.564 62.0888C143.459 62.9833 143.459 64.4469 142.564 65.3414C141.67 66.2358 140.206 66.2358 139.312 65.3414L138.219 64.2481C137.324 63.3537 137.324 61.8901 138.219 60.9956C139.113 60.1012 140.577 60.1012 141.471 60.9956L142.564 62.0888ZM134.976 54.4996C135.87 55.394 135.87 56.8577 134.976 57.7521C134.081 58.6466 132.618 58.6466 131.723 57.7521L130.63 56.6589C129.736 55.7645 129.736 54.3008 130.63 53.4064C131.524 52.512 132.988 52.512 133.882 53.4064L134.976 54.4996ZM127.387 46.9104C128.281 47.8048 128.281 49.2685 127.387 50.1629C126.492 51.0574 125.029 51.0574 124.134 50.1629L123.041 49.0697C122.147 48.1753 122.147 46.7116 123.041 45.8172C123.935 44.9227 125.399 44.9227 126.293 45.8172L127.387 46.9104ZM119.798 39.3212C120.692 40.2156 120.692 41.6792 119.798 42.5737C118.903 43.4681 117.44 43.4681 116.545 42.5737L115.452 41.4805C114.558 40.586 114.558 39.1224 115.452 38.228C116.347 37.3335 117.81 37.3335 118.705 38.228L119.798 39.3212ZM127.387 30.44L134.759 23.0676L132.148 20.4565L133.882 18.7218L141.146 25.9858L139.411 27.7205L136.809 25.1185L129.437 32.4909L127.387 30.44ZM134.65 37.7039L143.757 28.5969L145.808 30.6478L136.701 39.7548L134.65 37.7039ZM185.252 70.0936L183.517 71.8283L180.915 69.2263L173.552 76.5897L171.502 74.5388L178.874 67.1664L176.272 64.5644L178.006 62.8297L185.252 70.0936ZM175.712 60.5619L174.085 62.1882L170.092 58.1948L168.141 60.1463L171.727 63.7332L170.101 65.3594L166.515 61.7726L164.346 63.941L168.448 68.0428L166.822 69.669L160.669 63.5163L169.776 54.4093L175.847 60.4806L175.712 60.5619ZM161.618 46.4586L157.516 50.5604L164.536 49.3859L166.813 51.6627L160.2 52.6384L158.14 61.2034L155.872 58.9357L157.39 53.0811L154.661 53.4245L152.385 55.7012L150.334 53.6503L159.441 44.5433L161.491 46.5942L161.618 46.4586ZM155.005 43.7482L152.403 42.8809C152.567 42.3174 152.575 41.7202 152.427 41.1524C152.279 40.5845 151.981 40.0673 151.563 39.6555L151.545 39.6374C150.244 38.3364 148.184 38.2189 146.232 40.1795C144.281 42.14 144.389 44.1909 145.69 45.4919L145.708 45.51C146.118 45.9248 146.633 46.2217 147.197 46.3695C147.761 46.5173 148.355 46.5107 148.916 46.3502L148.934 46.3412L149.801 48.9432C148.783 49.1821 147.721 49.1572 146.716 48.8711C145.71 48.5849 144.795 48.0469 144.055 47.3079L143.829 47.073L143.838 47.082L143.703 46.9556C143.134 46.3875 142.683 45.7129 142.375 44.9703C142.067 44.2277 141.909 43.4318 141.909 42.6279C141.909 41.824 142.067 41.0281 142.375 40.2855C142.683 39.5429 143.134 38.8683 143.703 38.3002L144.064 37.9659L144.046 37.984C144.584 37.3378 145.25 36.8107 146.003 36.4362C146.755 36.0617 147.578 35.8482 148.417 35.8091C149.257 35.77 150.096 35.9062 150.88 36.2091C151.664 36.512 152.377 36.975 152.972 37.5684L153.171 37.7762L153.162 37.7672C154.027 38.465 154.666 39.4048 154.996 40.4667C155.325 41.5286 155.332 42.6646 155.014 43.7301L155.005 43.7572V43.7482Z" fill="#003CFF"></path></svg> 