<svg width="21" height="22" viewBox="0 0 21 22" fill="none" xmlns="http://www.w3.org/2000/svg">
<path d="M0.166504 21.0477L1.57905 15.8874C0.707406 14.3769 0.249398 12.6646 0.250235 10.9087C0.252747 5.41932 4.7198 0.952271 10.2084 0.952271C12.8719 0.953108 15.3721 1.99054 17.2527 3.87281C19.1324 5.75508 20.1673 8.25697 20.1665 10.9179C20.164 16.4082 15.6969 20.8752 10.2084 20.8752C8.54212 20.8744 6.90015 20.4566 5.44575 19.6628L0.166504 21.0477ZM5.69024 17.8601C7.09357 18.6932 8.43327 19.1922 10.205 19.1931C14.7667 19.1931 18.4827 15.4804 18.4852 10.9163C18.4869 6.34288 14.7885 2.63526 10.2117 2.63359C5.6467 2.63359 1.93323 6.34622 1.93155 10.9096C1.93072 12.7726 2.47664 14.1675 3.3935 15.627L2.55703 18.6815L5.69024 17.8601ZM15.2247 13.285C15.1627 13.1812 14.9969 13.1192 14.7474 12.9945C14.4987 12.8697 13.2754 12.2677 13.0469 12.1848C12.8191 12.1019 12.6533 12.06 12.4867 12.3096C12.3209 12.5582 11.8436 13.1192 11.6988 13.285C11.5539 13.4508 11.4082 13.4717 11.1596 13.347C10.9109 13.2222 10.1087 12.9601 9.15838 12.1119C8.41903 11.4521 7.91916 10.6374 7.77431 10.3879C7.62945 10.1392 7.75924 10.0044 7.88316 9.88051C7.99536 9.76915 8.13184 9.58997 8.2566 9.44427C8.38303 9.30026 8.42406 9.19643 8.50779 9.02981C8.59068 8.86402 8.54966 8.71833 8.48686 8.59357C8.42406 8.46964 7.9267 7.24466 7.71988 6.74646C7.51725 6.26166 7.31211 6.32697 7.15972 6.31943L6.68245 6.31106C6.51667 6.31106 6.24705 6.37302 6.0193 6.62254C5.79156 6.87206 5.1485 7.47325 5.1485 8.69823C5.1485 9.92322 6.04024 11.1063 6.16416 11.2721C6.28892 11.4379 7.91832 13.9515 10.4143 15.0291C11.008 15.2854 11.4719 15.4386 11.8328 15.5533C12.4289 15.7425 12.9715 15.7157 13.4002 15.6521C13.8783 15.5809 14.8722 15.0501 15.0798 14.469C15.2875 13.887 15.2875 13.3888 15.2247 13.285Z" fill="#656564"/>
</svg>
